<?xml version="1.0" encoding="UTF-8" standalone="no"?><svg width="492" height="492" viewBox="0 0 492 492" fill="none" xmlns="http://www.w3.org/2000/svg">
<path fill-rule="evenodd" clip-rule="evenodd" d="M246 2C111.243 2 2 111.243 2 246C2 380.757 111.243 490 246 490C380.757 490 490 380.757 490 246C490 111.243 380.757 2 246 2ZM0 246C0 110.138 110.138 0 246 0C381.862 0 492 110.138 492 246C492 381.862 381.862 492 246 492C110.138 492 0 381.862 0 246ZM146 240.227L156 245V247L146 251.773V240.227ZM346 251.773L336 247V245L346 240.227V251.773ZM164 247H160V245H164V247ZM172 247H168V245H172V247ZM180 247H176V245H180V247ZM188 247H184V245H188V247ZM196 247H192V245H196V247ZM204 247H200V245H204V247ZM212 247H208V245H212V247ZM220 247H216V245H220V247ZM228 247H224V245H228V247ZM236 247H232V245H236V247ZM240 247H243.586L241.213 249.372L242.628 250.787L245 248.414V252L247 252V248.414L249.372 250.787L250.787 249.372L248.414 247H252V245H248.414L250.787 242.628L249.372 241.213L247 243.586V240H245V243.586L242.628 241.213L241.213 242.628L243.586 245H240V247ZM244 246.72L245.28 248H246.72L248 246.72V245.28L246.72 244H245.28L244 245.28V246.72ZM260 247H256V245H260V247ZM268 247H264V245H268V247ZM276 247H272V245H276V247ZM284 247H280V245H284V247ZM292 247H288V245H292V247ZM300 247H296V245H300V247ZM308 247H304V245H308V247ZM316 247H312V245H316V247ZM324 247H320V245H324V247ZM332 247H328V245H332V247ZM247 156L251.773 146H240.227L245 156H247ZM245 336L240.226 346H251.773L247 336H245ZM245 160V164H247V160H245ZM245 168V172H247V168H245ZM245 176V180H247V176H245ZM245 184V188H247V184H245ZM245 192V196H247V192H245ZM245 200V204H247V200H245ZM245 208V212H247V208H245ZM245 216V220H247V216H245ZM245 224V228H247V224H245ZM245 232V236H247V232H245ZM245 256V260H247V256H245ZM245 264V268H247V264H245ZM245 272V276H247V272H245ZM245 280V284H247V280H245ZM245 288V292H247V288H245ZM245 296V300H247V296H245ZM245 304V308H247V304H245ZM245 312V316H247V312H245ZM245 320L245 324H247L247 320H245ZM245 328V332H247V328H245ZM285.438 214.727L274.991 218.423L273.577 217.009L277.273 206.562L285.438 214.727ZM206.562 277.273L217.009 273.577L218.423 274.991L214.727 285.438L206.562 277.273ZM268.41 222.176L271.129 219.456L272.544 220.87L269.824 223.59L268.41 222.176ZM262.971 227.615L265.69 224.896L267.104 226.31L264.385 229.029L262.971 227.615ZM257.531 233.055L260.251 230.335L261.665 231.749L258.945 234.469L257.531 233.055ZM252.092 238.494L254.812 235.774L256.226 237.188L253.506 239.908L252.092 238.494ZM235.774 254.812L238.494 252.092L239.908 253.506L237.188 256.226L235.774 254.812ZM230.335 260.251L233.055 257.531L234.469 258.945L231.749 261.665L230.335 260.251ZM224.896 265.69L227.615 262.971L229.029 264.385L226.31 267.104L224.896 265.69ZM219.456 271.129L222.176 268.41L223.59 269.824L220.871 272.544L219.456 271.129ZM273.577 274.991L277.273 285.438L285.438 277.273L274.991 273.577L273.577 274.991ZM218.423 217.009L214.727 206.562L206.562 214.727L217.009 218.423L218.423 217.009ZM272.544 271.129L269.824 268.41L268.41 269.824L271.129 272.544L272.544 271.129ZM267.104 265.69L264.385 262.971L262.971 264.385L265.69 267.104L267.104 265.69ZM261.665 260.251L258.945 257.531L257.531 258.945L260.251 261.665L261.665 260.251ZM256.226 254.812L253.506 252.092L252.092 253.506L254.812 256.226L256.226 254.812ZM239.908 238.494L237.188 235.774L235.774 237.188L238.494 239.908L239.908 238.494ZM234.469 233.054L231.749 230.335L230.335 231.749L233.055 234.469L234.469 233.054ZM229.029 227.615L226.31 224.896L224.896 226.31L227.615 229.029L229.029 227.615ZM223.59 222.176L220.871 219.456L219.456 220.87L222.176 223.59L223.59 222.176ZM246 97C163.71 97 97 163.71 97 246C97 328.29 163.71 395 246 395C328.29 395 395 328.29 395 246C395 163.71 328.29 97 246 97ZM95 246C95 162.605 162.605 95 246 95C329.395 95 397 162.605 397 246C397 329.395 329.395 397 246 397C162.605 397 95 329.395 95 246ZM107 246C107 169.232 169.232 107 246 107C322.768 107 385 169.232 385 246C385 322.768 322.768 385 246 385C169.232 385 107 322.768 107 246ZM246 105C168.128 105 105 168.128 105 246C105 323.872 168.128 387 246 387C323.872 387 387 323.872 387 246C387 168.128 323.872 105 246 105ZM246 117C174.755 117 117 174.755 117 246C117 317.245 174.755 375 246 375C317.245 375 375 317.245 375 246C375 174.755 317.245 117 246 117ZM115 246C115 173.651 173.651 115 246 115C318.349 115 377 173.651 377 246C377 318.349 318.349 377 246 377C173.651 377 115 318.349 115 246ZM248.72 59.4754C247.644 57.1628 244.356 57.1628 243.28 59.4754L237.734 71.3952C237.396 72.1223 236.382 72.1754 235.97 71.4877L229.208 60.2129C227.896 58.0254 224.626 58.3691 223.798 60.7815L219.528 73.2157C219.268 73.9742 218.265 74.133 217.783 73.4921L209.88 62.9859C208.347 60.9476 205.13 61.6311 204.559 64.1169L201.612 76.9294C201.432 77.7109 200.452 77.9735 199.906 77.3866L190.948 67.764C189.21 65.8971 186.083 66.9132 185.774 69.4451L184.183 82.4953C184.086 83.2914 183.138 83.6551 182.533 83.1285L172.618 74.495C170.695 72.82 167.691 74.1573 167.649 76.7076L167.43 89.8527C167.417 90.6545 166.513 91.1153 165.856 90.6548L155.093 83.1049C153.005 81.6402 150.158 83.2842 150.382 85.8249L151.539 98.9209C151.61 99.7197 150.758 100.272 150.057 99.8831L138.564 93.4996C136.334 92.2612 133.674 94.1938 134.163 96.6972L136.682 109.6C136.836 110.387 136.047 111.026 135.309 110.712L123.212 105.565C120.865 104.567 118.422 106.767 119.169 109.205L123.024 121.774C123.259 122.541 122.541 123.259 121.774 123.024L109.205 119.169C106.767 118.422 104.567 120.865 105.565 123.212L110.712 135.309C111.026 136.047 110.387 136.836 109.6 136.682L96.6972 134.163C94.1938 133.674 92.2612 136.334 93.4996 138.564L99.8831 150.057C100.272 150.758 99.7197 151.61 98.9209 151.539L85.8249 150.382C83.2842 150.158 81.6402 153.005 83.1049 155.093L90.6548 165.856C91.1153 166.513 90.6545 167.417 89.8527 167.43L76.7076 167.649C74.1573 167.691 72.82 170.695 74.495 172.618L83.1285 182.533C83.6551 183.138 83.2914 184.086 82.4953 184.183L69.4451 185.774C66.9132 186.083 65.8971 189.21 67.764 190.948L77.3866 199.906C77.9735 200.452 77.7109 201.432 76.9294 201.612L64.1169 204.559C61.6312 205.13 60.9475 208.347 62.9859 209.88L73.4921 217.783C74.133 218.265 73.9742 219.268 73.2158 219.528L60.7815 223.798C58.3691 224.626 58.0254 227.896 60.2129 229.208L71.4877 235.97C72.1754 236.382 72.1223 237.396 71.3952 237.734L59.4754 243.28C57.1628 244.356 57.1628 247.644 59.4754 248.72L71.3952 254.266C72.1223 254.604 72.1754 255.618 71.4877 256.03L60.2129 262.792C58.0254 264.104 58.3691 267.374 60.7815 268.202L73.2157 272.472C73.9742 272.732 74.133 273.735 73.4921 274.217L62.9859 282.12C60.9476 283.653 61.6311 286.87 64.1169 287.441L76.9294 290.388C77.7109 290.568 77.9735 291.548 77.3866 292.094L67.764 301.052C65.8971 302.79 66.9132 305.917 69.4451 306.226L82.4953 307.817C83.2914 307.914 83.6551 308.862 83.1285 309.467L74.495 319.382C72.82 321.305 74.1573 324.309 76.7076 324.351L89.8527 324.57C90.6545 324.583 91.1153 325.487 90.6548 326.144L83.1049 336.907C81.6402 338.995 83.2842 341.842 85.8249 341.618L98.9209 340.461C99.7197 340.39 100.272 341.242 99.8831 341.943L93.4996 353.436C92.2612 355.666 94.1938 358.326 96.6972 357.837L109.6 355.318C110.387 355.164 111.026 355.953 110.712 356.69L105.565 368.788C104.567 371.135 106.767 373.578 109.205 372.831L121.774 368.976C122.541 368.741 123.259 369.459 123.024 370.226L119.169 382.795C118.422 385.233 120.865 387.433 123.212 386.435L135.309 381.288C136.047 380.974 136.836 381.613 136.682 382.4L134.163 395.303C133.674 397.806 136.334 399.739 138.564 398.5L150.057 392.117C150.758 391.728 151.61 392.28 151.539 393.079L150.382 406.175C150.158 408.716 153.005 410.36 155.093 408.895L165.856 401.345C166.513 400.885 167.417 401.346 167.43 402.147L167.649 415.292C167.691 417.843 170.695 419.18 172.618 417.505L182.533 408.872C183.138 408.345 184.086 408.709 184.183 409.505L185.774 422.555C186.083 425.087 189.21 426.103 190.948 424.236L199.906 414.613C200.452 414.026 201.432 414.289 201.612 415.071L204.559 427.883C205.13 430.369 208.347 431.052 209.88 429.014L217.783 418.508C218.265 417.867 219.268 418.026 219.528 418.784L223.798 431.219C224.626 433.631 227.896 433.975 229.208 431.787L235.97 420.512C236.382 419.825 237.396 419.878 237.734 420.605L243.28 432.525C244.356 434.837 247.644 434.837 248.72 432.525L254.266 420.605C254.604 419.878 255.618 419.825 256.03 420.512L262.792 431.787C264.104 433.975 267.374 433.631 268.202 431.219L272.472 418.784C272.732 418.026 273.735 417.867 274.217 418.508L282.12 429.014C283.653 431.052 286.87 430.369 287.441 427.883L290.388 415.071C290.568 414.289 291.548 414.026 292.094 414.613L301.052 424.236C302.79 426.103 305.917 425.087 306.226 422.555L307.817 409.505C307.914 408.709 308.862 408.345 309.467 408.872L319.382 417.505C321.305 419.18 324.309 417.843 324.351 415.292L324.57 402.147C324.583 401.346 325.487 400.885 326.144 401.345L336.907 408.895C338.995 410.36 341.842 408.716 341.618 406.175L340.461 393.079C340.39 392.28 341.242 391.728 341.943 392.117L353.436 398.5C355.666 399.739 358.326 397.806 357.837 395.303L355.318 382.4C355.164 381.613 355.953 380.974 356.69 381.288L368.788 386.435C371.135 387.433 373.578 385.233 372.831 382.795L368.976 370.226C368.741 369.459 369.459 368.741 370.226 368.976L382.795 372.831C385.233 373.578 387.433 371.135 386.435 368.788L381.288 356.69C380.974 355.953 381.613 355.164 382.4 355.318L395.303 357.837C397.806 358.326 399.739 355.666 398.5 353.436L392.117 341.943C391.728 341.242 392.28 340.39 393.079 340.461L406.175 341.618C408.716 341.842 410.36 338.995 408.895 336.907L401.345 326.144C400.885 325.487 401.346 324.583 402.147 324.57L415.292 324.351C417.843 324.309 419.18 321.305 417.505 319.382L408.872 309.467C408.345 308.862 408.709 307.914 409.505 307.817L422.555 306.226C425.087 305.917 426.103 302.79 424.236 301.052L414.613 292.094C414.026 291.548 414.289 290.568 415.071 290.388L427.883 287.441C430.369 286.87 431.052 283.653 429.014 282.12L418.508 274.217C417.867 273.735 418.026 272.732 418.784 272.472L431.219 268.202C433.631 267.374 433.975 264.104 431.787 262.792L420.512 256.03C419.825 255.618 419.878 254.604 420.605 254.266L432.525 248.72C434.837 247.644 434.837 244.356 432.525 243.28L420.605 237.734C419.878 237.396 419.825 236.382 420.512 235.97L431.787 229.208C433.975 227.896 433.631 224.626 431.219 223.798L418.784 219.528C418.026 219.268 417.867 218.265 418.508 217.783L429.014 209.88C431.052 208.347 430.369 205.13 427.883 204.559L415.071 201.612C414.289 201.432 414.026 200.452 414.613 199.906L424.236 190.948C426.103 189.21 425.087 186.083 422.555 185.774L409.505 184.183C408.709 184.086 408.345 183.138 408.872 182.533L417.505 172.618C419.18 170.695 417.843 167.691 415.292 167.649L402.147 167.43C401.345 167.417 400.885 166.513 401.345 165.856L408.895 155.093C410.36 153.005 408.716 150.158 406.175 150.382L393.079 151.539C392.28 151.61 391.728 150.758 392.117 150.057L398.5 138.564C399.739 136.334 397.806 133.674 395.303 134.163L382.4 136.682C381.613 136.836 380.974 136.047 381.288 135.309L386.435 123.212C387.433 120.865 385.233 118.422 382.795 119.169L370.226 123.024C369.459 123.259 368.741 122.541 368.976 121.774L372.831 109.205C373.578 106.767 371.135 104.567 368.788 105.565L356.69 110.712C355.953 111.026 355.164 110.387 355.318 109.6L357.837 96.6972C358.326 94.1938 355.666 92.2612 353.436 93.4996L341.943 99.8831C341.242 100.272 340.39 99.7197 340.461 98.9209L341.618 85.8249C341.842 83.2842 338.995 81.6402 336.907 83.1049L326.144 90.6548C325.487 91.1153 324.583 90.6545 324.57 89.8527L324.351 76.7076C324.309 74.1573 321.305 72.82 319.382 74.495L309.467 83.1285C308.862 83.6551 307.914 83.2914 307.817 82.4953L306.226 69.4451C305.917 66.9132 302.79 65.8971 301.052 67.764L292.094 77.3866C291.548 77.9735 290.568 77.7109 290.388 76.9294L287.441 64.1169C286.87 61.6312 283.653 60.9475 282.12 62.9859L274.217 73.4921C273.735 74.133 272.732 73.9742 272.472 73.2158L268.202 60.7815C267.374 58.3691 264.104 58.0254 262.792 60.2129L256.03 71.4877C255.618 72.1754 254.604 72.1223 254.266 71.3952L248.72 59.4754ZM245.093 60.3191C245.452 59.5482 246.548 59.5482 246.907 60.3191L252.453 72.2389C253.468 74.4201 256.508 74.5795 257.746 72.5163L264.507 61.2415C264.945 60.5124 266.035 60.6269 266.311 61.431L270.58 73.8653C271.362 76.1406 274.369 76.6169 275.815 74.6944L283.718 64.1882C284.229 63.5087 285.302 63.7366 285.492 64.5652L288.439 77.3776C288.978 79.7222 291.919 80.5102 293.558 78.7494L302.516 69.1268C303.096 68.5045 304.138 68.8432 304.241 69.6871L305.832 82.7374C306.123 85.1255 308.966 86.2166 310.78 84.6368L320.695 76.0033C321.336 75.4449 322.337 75.8907 322.352 76.7408L322.57 89.8859C322.61 92.2913 325.323 93.6736 327.292 92.2921L338.055 84.7423C338.751 84.254 339.7 84.802 339.626 85.649L338.469 98.7449C338.257 101.141 340.811 102.8 342.914 101.631L354.407 95.2481C355.15 94.8353 356.037 95.4795 355.874 96.3139L353.355 109.217C352.894 111.578 355.26 113.494 357.474 112.553L369.571 107.406C370.353 107.073 371.168 107.806 370.919 108.619L367.064 121.188C366.359 123.488 368.512 125.641 370.812 124.936L383.381 121.081C384.194 120.832 384.927 121.647 384.594 122.429L379.447 134.526C378.506 136.74 380.422 139.106 382.783 138.645L395.686 136.126C396.521 135.963 397.165 136.85 396.752 137.593L390.368 149.086C389.2 151.189 390.859 153.743 393.255 153.531L406.351 152.374C407.198 152.3 407.746 153.249 407.258 153.945L399.708 164.708C398.326 166.677 399.709 169.39 402.114 169.43L415.259 169.648C416.109 169.663 416.555 170.664 415.997 171.305L407.363 181.22C405.783 183.034 406.875 185.877 409.263 186.168L422.313 187.759C423.157 187.862 423.496 188.904 422.873 189.484L413.251 198.442C411.49 200.081 412.278 203.022 414.622 203.561L427.435 206.508C428.263 206.698 428.491 207.771 427.812 208.282L417.306 216.185C415.383 217.631 415.859 220.638 418.135 221.42L430.569 225.689C431.373 225.965 431.488 227.055 430.759 227.493L419.484 234.254C417.421 235.492 417.58 238.532 419.761 239.547L431.681 245.093C432.452 245.452 432.452 246.548 431.681 246.907L419.761 252.453C417.58 253.468 417.421 256.508 419.484 257.746L430.759 264.507C431.488 264.945 431.373 266.035 430.569 266.311L418.135 270.58C415.859 271.362 415.383 274.369 417.306 275.815L427.812 283.718C428.491 284.229 428.263 285.302 427.435 285.492L414.622 288.439C412.278 288.978 411.49 291.919 413.251 293.558L422.873 302.516C423.496 303.096 423.157 304.138 422.313 304.241L409.263 305.832C406.875 306.123 405.783 308.966 407.363 310.78L415.997 320.695C416.555 321.336 416.109 322.337 415.259 322.352L402.114 322.57C399.709 322.61 398.326 325.323 399.708 327.292L407.258 338.055C407.746 338.751 407.198 339.7 406.351 339.626L393.255 338.469C390.859 338.257 389.2 340.811 390.368 342.914L396.752 354.407C397.165 355.15 396.521 356.037 395.686 355.874L382.783 353.355C380.422 352.894 378.506 355.26 379.447 357.474L384.594 369.571C384.927 370.353 384.194 371.168 383.381 370.919L370.812 367.064C368.512 366.359 366.359 368.512 367.064 370.812L370.919 383.381C371.168 384.194 370.353 384.927 369.571 384.594L357.474 379.447C355.26 378.506 352.894 380.422 353.355 382.783L355.874 395.686C356.037 396.521 355.15 397.165 354.407 396.752L342.914 390.368C340.811 389.2 338.257 390.859 338.469 393.255L339.626 406.351C339.7 407.198 338.751 407.746 338.055 407.258L327.292 399.708C325.323 398.326 322.61 399.709 322.57 402.114L322.352 415.259C322.337 416.109 321.336 416.555 320.695 415.997L310.78 407.363C308.966 405.783 306.123 406.875 305.832 409.263L304.241 422.313C304.138 423.157 303.096 423.496 302.516 422.873L293.558 413.251C291.919 411.49 288.978 412.278 288.439 414.622L285.492 427.435C285.302 428.263 284.229 428.491 283.718 427.812L275.815 417.306C274.369 415.383 271.362 415.859 270.58 418.135L266.311 430.569C266.035 431.373 264.945 431.488 264.507 430.759L257.746 419.484C256.508 417.421 253.468 417.58 252.453 419.761L246.907 431.681C246.548 432.452 245.452 432.452 245.093 431.681L239.547 419.761C238.532 417.58 235.492 417.421 234.254 419.484L227.493 430.759C227.055 431.488 225.965 431.373 225.689 430.569L221.42 418.135C220.638 415.859 217.631 415.383 216.185 417.306L208.282 427.812C207.771 428.491 206.698 428.263 206.508 427.435L203.561 414.622C203.022 412.278 200.081 411.49 198.442 413.251L189.484 422.873C188.904 423.496 187.862 423.157 187.759 422.313L186.168 409.263C185.877 406.875 183.034 405.783 181.22 407.363L171.305 415.997C170.664 416.555 169.663 416.109 169.648 415.259L169.43 402.114C169.39 399.709 166.677 398.326 164.708 399.708L153.945 407.258C153.249 407.746 152.3 407.198 152.374 406.351L153.531 393.255C153.743 390.859 151.189 389.2 149.086 390.368L137.593 396.752C136.85 397.165 135.963 396.521 136.126 395.686L138.645 382.783C139.106 380.422 136.74 378.506 134.526 379.447L122.429 384.594C121.647 384.927 120.832 384.194 121.081 383.381L124.936 370.812C125.641 368.512 123.488 366.359 121.188 367.064L108.619 370.919C107.806 371.168 107.073 370.353 107.406 369.571L112.553 357.474C113.494 355.26 111.578 352.894 109.217 353.355L96.3139 355.874C95.4795 356.037 94.8353 355.15 95.2481 354.407L101.631 342.914C102.8 340.811 101.141 338.257 98.7449 338.469L85.6489 339.626C84.802 339.7 84.254 338.751 84.7423 338.055L92.2921 327.292C93.6736 325.323 92.2913 322.61 89.8859 322.57L76.7408 322.352C75.8907 322.337 75.4449 321.336 76.0033 320.695L84.6368 310.78C86.2166 308.966 85.1255 306.123 82.7374 305.832L69.6871 304.241C68.8432 304.138 68.5045 303.096 69.1268 302.516L78.7494 293.558C80.5102 291.919 79.7221 288.978 77.3776 288.439L64.5652 285.492C63.7366 285.302 63.5087 284.229 64.1882 283.718L74.6944 275.815C76.6169 274.369 76.1406 271.362 73.8653 270.58L61.431 266.311C60.6269 266.035 60.5124 264.945 61.2415 264.507L72.5163 257.746C74.5795 256.508 74.4201 253.468 72.2389 252.453L60.3191 246.907C59.5482 246.548 59.5482 245.452 60.3191 245.093L72.2389 239.547C74.4201 238.532 74.5795 235.492 72.5163 234.254L61.2415 227.493C60.5124 227.055 60.6269 225.965 61.431 225.689L73.8653 221.42C76.1406 220.638 76.6169 217.631 74.6944 216.185L64.1882 208.282C63.5087 207.771 63.7366 206.698 64.5652 206.508L77.3776 203.561C79.7222 203.022 80.5102 200.081 78.7494 198.442L69.1268 189.484C68.5045 188.904 68.8432 187.862 69.6871 187.759L82.7374 186.168C85.1255 185.877 86.2166 183.034 84.6368 181.22L76.0033 171.305C75.4449 170.664 75.8907 169.663 76.7408 169.648L89.8859 169.43C92.2913 169.39 93.6736 166.677 92.2921 164.708L84.7423 153.945C84.254 153.249 84.802 152.3 85.6489 152.374L98.7449 153.531C101.141 153.743 102.8 151.189 101.631 149.086L95.2481 137.593C94.8353 136.85 95.4795 135.963 96.3139 136.126L109.217 138.645C111.578 139.106 113.494 136.74 112.553 134.526L107.406 122.429C107.073 121.647 107.806 120.832 108.619 121.081L121.188 124.936C123.488 125.641 125.641 123.488 124.936 121.188L121.081 108.619C120.832 107.806 121.647 107.073 122.429 107.406L134.526 112.553C136.74 113.494 139.106 111.578 138.645 109.217L136.126 96.3139C135.963 95.4795 136.85 94.8353 137.593 95.2481L149.086 101.631C151.189 102.8 153.743 101.141 153.531 98.7449L152.374 85.6489C152.3 84.802 153.249 84.254 153.945 84.7423L164.708 92.2921C166.677 93.6736 169.39 92.2913 169.43 89.8859L169.648 76.7408C169.663 75.8907 170.664 75.4449 171.305 76.0033L181.22 84.6368C183.034 86.2166 185.877 85.1255 186.168 82.7374L187.759 69.6871C187.862 68.8432 188.904 68.5045 189.484 69.1268L198.442 78.7494C200.081 80.5102 203.022 79.7221 203.561 77.3776L206.508 64.5652C206.698 63.7366 207.771 63.5087 208.282 64.1882L216.185 74.6944C217.631 76.6169 220.638 76.1406 221.42 73.8653L225.689 61.431C225.965 60.6269 227.055 60.5124 227.493 61.2415L234.254 72.5163C235.492 74.5795 238.532 74.4201 239.547 72.2389L245.093 60.3191ZM251 31C251 33.7614 248.761 36 246 36C243.239 36 241 33.7614 241 31C241 28.2386 243.239 26 246 26C248.761 26 251 28.2386 251 31ZM246 456C243.239 456 241 458.239 241 461C241 463.761 243.239 466 246 466C248.761 466 251 463.761 251 461C251 458.239 248.761 456 246 456ZM31 241C33.7614 241 36 243.239 36 246C36 248.761 33.7614 251 31 251C28.2386 251 26 248.761 26 246C26 243.239 28.2386 241 31 241ZM456 246C456 248.762 458.239 251 461 251C463.761 251 466 248.762 466 246C466 243.239 463.761 241 461 241C458.239 241 456 243.239 456 246ZM452.38 306.476C449.713 305.761 448.13 303.019 448.844 300.352C449.559 297.685 452.301 296.102 454.968 296.817C457.635 297.531 459.218 300.273 458.504 302.94C457.789 305.608 455.047 307.191 452.38 306.476ZM427.865 351C426.485 353.392 427.304 356.449 429.695 357.83C432.087 359.211 435.145 358.392 436.526 356C437.906 353.609 437.087 350.551 434.695 349.17C432.304 347.789 429.246 348.609 427.865 351ZM349.17 434.695C347.789 432.304 348.608 429.246 351 427.865C353.391 426.485 356.449 427.304 357.83 429.695C359.211 432.087 358.391 435.145 356 436.526C353.608 437.906 350.55 437.087 349.17 434.695ZM191.648 448.844C188.981 448.13 186.239 449.713 185.524 452.38C184.809 455.047 186.392 457.789 189.06 458.504C191.727 459.218 194.469 457.635 195.183 454.968C195.898 452.301 194.315 449.559 191.648 448.844ZM296.816 454.968C296.102 452.301 297.685 449.559 300.352 448.844C303.019 448.13 305.761 449.713 306.476 452.38C307.19 455.047 305.607 457.789 302.94 458.504C300.273 459.218 297.531 457.635 296.816 454.968ZM141 427.865C138.608 426.485 135.551 427.304 134.17 429.695C132.789 432.087 133.608 435.145 136 436.526C138.391 437.906 141.449 437.087 142.83 434.695C144.211 432.304 143.391 429.246 141 427.865ZM57.3046 349.17C59.696 347.789 62.754 348.608 64.1347 351C65.5154 353.391 64.696 356.449 62.3046 357.83C59.9131 359.211 56.8551 358.391 55.4744 356C54.0937 353.608 54.9131 350.55 57.3046 349.17ZM43.1556 300.352C42.4409 297.685 39.6992 296.102 37.0319 296.816C34.3645 297.531 32.7816 300.273 33.4963 302.94C34.2111 305.607 36.9527 307.19 39.6201 306.476C42.2874 305.761 43.8703 303.019 43.1556 300.352ZM39.6201 185.524C42.2875 186.239 43.8704 188.981 43.1557 191.648C42.4409 194.315 39.6993 195.898 37.0319 195.183C34.3646 194.469 32.7817 191.727 33.4964 189.06C34.2111 186.392 36.9528 184.809 39.6201 185.524ZM64.1347 141C65.5155 138.608 64.6961 135.551 62.3046 134.17C59.9132 132.789 56.8552 133.608 55.4745 136C54.0938 138.391 54.9132 141.449 57.3046 142.83C59.6961 144.211 62.754 143.391 64.1347 141ZM142.83 57.3045C144.211 59.696 143.392 62.7539 141 64.1346C138.609 65.5154 135.551 64.696 134.17 62.3045C132.789 59.913 133.609 56.8551 136 55.4744C138.392 54.0937 141.45 54.913 142.83 57.3045ZM191.648 43.1556C194.315 42.4409 195.898 39.6992 195.184 37.0319C194.469 34.3645 191.727 32.7816 189.06 33.4963C186.393 34.211 184.81 36.9527 185.524 39.6201C186.239 42.2874 188.981 43.8703 191.648 43.1556ZM306.476 39.6201C305.761 42.2874 303.019 43.8703 300.352 43.1556C297.685 42.4409 296.102 39.6992 296.817 37.0319C297.531 34.3646 300.273 32.7817 302.94 33.4964C305.608 34.2111 307.191 36.9528 306.476 39.6201ZM351 64.1348C353.392 65.5155 356.449 64.6961 357.83 62.3046C359.211 59.9132 358.392 56.8552 356 55.4745C353.609 54.0938 350.551 54.9132 349.17 57.3046C347.789 59.6961 348.609 62.754 351 64.1348ZM434.695 142.83C432.304 144.211 429.246 143.392 427.865 141C426.485 138.609 427.304 135.551 429.695 134.17C432.087 132.789 435.145 133.609 436.526 136C437.906 138.392 437.087 141.45 434.695 142.83ZM448.844 191.648C449.559 194.315 452.301 195.898 454.968 195.184C457.635 194.469 459.218 191.727 458.504 189.06C457.789 186.393 455.047 184.81 452.38 185.524C449.713 186.239 448.13 188.981 448.844 191.648ZM394.492 401.564C392.54 399.611 392.54 396.445 394.492 394.492C396.445 392.54 399.611 392.54 401.563 394.492C403.516 396.445 403.516 399.611 401.563 401.564C399.611 403.516 396.445 403.516 394.492 401.564ZM97.5075 394.492C95.5549 392.54 92.3891 392.54 90.4365 394.492C88.4838 396.445 88.4838 399.611 90.4365 401.563C92.3891 403.516 95.5549 403.516 97.5075 401.563C99.4601 399.611 99.4601 396.445 97.5075 394.492ZM97.5077 90.4365C99.4603 92.3891 99.4603 95.5549 97.5077 97.5075C95.555 99.4601 92.3892 99.4601 90.4366 97.5075C88.484 95.5549 88.484 92.3891 90.4366 90.4365C92.3892 88.4838 95.555 88.4838 97.5077 90.4365ZM394.492 97.5077C396.445 99.4603 399.611 99.4603 401.564 97.5077C403.516 95.555 403.516 92.3892 401.564 90.4366C399.611 88.484 396.445 88.484 394.492 90.4366C392.54 92.3892 392.54 95.555 394.492 97.5077Z" fill="#E6E6E6"/>
</svg>
