<?xml version="1.0" encoding="UTF-8" standalone="no"?><svg width="76" height="72" viewBox="0 0 76 72" fill="none" xmlns="http://www.w3.org/2000/svg">
<path d="M51.5359 39.6483C51.5359 39.6483 51.5359 39.6482 51.5289 39.6446C51.5179 39.6389 51.4892 39.6243 51.4151 39.5868L50.9113 39.3322L51.5359 39.6483Z" fill="black"/>
<path d="M24.2864 39.6477L24.9113 39.3322L24.3555 39.6127C24.2863 39.6475 24.2864 39.6477 24.2864 39.6477Z" fill="black"/>
<path fill-rule="evenodd" clip-rule="evenodd" d="M37.9113 35.0322C35.5365 35.0322 33.6113 36.9574 33.6113 39.3322C33.6113 41.7071 35.5365 43.6322 37.9113 43.6322C40.2861 43.6322 42.2113 41.7071 42.2113 39.3322C42.2113 36.9574 40.2861 35.0322 37.9113 35.0322ZM40.3886 37.6398C40.1948 37.9788 39.8298 38.2072 39.4113 38.2072C38.79 38.2072 38.2863 37.7035 38.2863 37.0822C38.2863 36.8231 38.3739 36.5844 38.5211 36.3942C38.3242 36.3536 38.1202 36.3322 37.9113 36.3322C36.2544 36.3322 34.9113 37.6754 34.9113 39.3322C34.9113 39.9063 35.0725 40.4427 35.3522 40.8987C35.4465 40.856 35.5511 40.8322 35.6613 40.8322C36.0755 40.8322 36.4113 41.168 36.4113 41.5822C36.4113 41.6924 36.3875 41.7971 36.3448 41.8913C36.8008 42.171 37.3372 42.3322 37.9113 42.3322C39.5681 42.3322 40.9113 40.9891 40.9113 39.3322C40.9113 38.7043 40.7184 38.1215 40.3886 37.6398Z" fill="black"/>
<path fill-rule="evenodd" clip-rule="evenodd" d="M25.7122 39.3322C25.8323 39.537 26.0138 39.8307 26.2581 40.1841C26.7553 40.903 27.5088 41.8629 28.5301 42.8219C30.5708 44.7383 33.6577 46.6322 37.9113 46.6322C42.1649 46.6322 45.2517 44.7383 47.2925 42.8219C48.3138 41.8629 49.0673 40.903 49.5645 40.1841C49.8088 39.8307 49.9903 39.537 50.1103 39.3322C49.9903 39.1275 49.8088 38.8337 49.5645 38.4804C49.0673 37.7615 48.3138 36.8015 47.2925 35.8425C45.2517 33.9262 42.1649 32.0322 37.9113 32.0322C33.6577 32.0322 30.5708 33.9262 28.5301 35.8425C27.5088 36.8015 26.7553 37.7615 26.2581 38.4804C26.0138 38.8337 25.8323 39.1275 25.7122 39.3322ZM32.2113 39.3322C32.2113 36.1842 34.7633 33.6322 37.9113 33.6322C41.0593 33.6322 43.6113 36.1842 43.6113 39.3322C43.6113 42.4803 41.0593 45.0322 37.9113 45.0322C34.7633 45.0322 32.2113 42.4803 32.2113 39.3322Z" fill="black"/>
<path fill-rule="evenodd" clip-rule="evenodd" d="M40.7644 2.11215C39.8663 -0.651641 35.9563 -0.651641 35.0582 2.11215L28.2563 23.0434C27.8547 24.2794 26.7029 25.1162 25.4033 25.1163L3.39455 25.1171C0.488499 25.1172 -0.719765 28.8359 1.63122 30.5441L19.4362 43.4812C20.4875 44.2451 20.9275 45.5991 20.5259 46.8351L13.7256 67.7669C12.8277 70.5307 15.991 72.829 18.3421 71.1209L36.148 58.1852C37.1995 57.4214 38.6231 57.4214 39.6746 58.1852L57.4805 71.1209C59.8316 72.829 62.9949 70.5307 62.0969 67.7669L55.2967 46.8351C54.8951 45.5991 55.3351 44.2451 56.3864 43.4812L74.1913 30.5441C76.5423 28.8359 75.3341 25.1172 72.428 25.1171L50.4193 25.1163C49.1197 25.1162 47.9679 24.2794 47.5663 23.0434L40.7644 2.11215ZM24.2864 39.6477L24.2871 39.6492L24.2883 39.6514L24.2916 39.6579L24.3028 39.6796C24.3086 39.6905 24.3158 39.7041 24.3244 39.7204C24.3301 39.731 24.3365 39.7428 24.3435 39.7557C24.3787 39.8206 24.4301 39.9132 24.4981 40.0294C24.634 40.2617 24.8362 40.5893 25.1067 40.9804C25.6468 41.7615 26.4631 42.8015 27.5717 43.8425C29.7906 45.9262 33.2038 48.0322 37.9113 48.0322C42.6188 48.0322 46.0319 45.9262 48.2509 43.8425C49.3595 42.8015 50.1757 41.7615 50.7159 40.9804C50.9864 40.5893 51.1886 40.2617 51.3245 40.0294C51.3925 39.9132 51.4439 39.8206 51.4791 39.7557C51.4967 39.7233 51.5102 39.6977 51.5197 39.6796L51.531 39.6579L51.5343 39.6514L51.5359 39.6483L51.6954 39.3322L51.5362 39.0167L51.5354 39.0153L51.5343 39.0131L51.531 39.0065L51.5197 38.9849C51.5102 38.9667 51.4967 38.9412 51.4791 38.9087C51.4439 38.8438 51.3925 38.7513 51.3245 38.6351C51.1886 38.4027 50.9864 38.0751 50.7159 37.6841C50.1757 36.903 49.3595 35.8629 48.2509 34.8219C46.0319 32.7383 42.6188 30.6322 37.9113 30.6322C33.2038 30.6322 29.7906 32.7383 27.5717 34.8219C26.4631 35.8629 25.6468 36.903 25.1067 37.6841C24.8362 38.0751 24.634 38.4027 24.4981 38.6351C24.4301 38.7513 24.3787 38.8438 24.3435 38.9087L24.317 38.9581L24.3028 38.9849L24.2916 39.0065L24.2883 39.0131L24.2871 39.0153C24.2871 39.0153 24.2864 39.0168 24.9113 39.3322L24.2864 39.0167L24.1271 39.3322L24.2864 39.6477Z" fill="black"/>
<path d="M11.2888 22.1168C15.5122 15.5989 22.0642 10.7301 29.7667 8.68828L29.2465 10.2893C22.5646 12.2798 16.8492 16.5134 12.9737 22.1167L11.2888 22.1168Z" fill="black"/>
<path d="M7.61131 39.3322C7.61131 39.0887 7.61417 38.8459 7.61989 38.6038L6.2571 37.6136C6.2267 38.1826 6.2113 38.7556 6.2113 39.3322C6.2113 46.9138 8.87289 53.8738 13.3127 59.3287L13.8327 57.728C9.93001 52.6275 7.61131 46.2506 7.61131 39.3322Z" fill="black"/>
<path d="M37.9113 71.0322C33.8839 71.0322 30.0318 70.2812 26.4876 68.9115L27.85 67.9217C30.9981 69.0296 34.3843 69.6322 37.9113 69.6322C41.4383 69.6322 44.8245 69.0296 47.9726 67.9217L49.335 68.9115C45.7908 70.2812 41.9388 71.0322 37.9113 71.0322Z" fill="black"/>
<path d="M68.2113 39.3322C68.2113 46.2506 65.8926 52.6275 61.9899 57.7281L62.5099 59.3288C66.9497 53.8738 69.6113 46.9139 69.6113 39.3322C69.6113 38.7556 69.5959 38.1826 69.5655 37.6135L68.2027 38.6037C68.2084 38.8459 68.2113 39.0887 68.2113 39.3322Z" fill="black"/>
<path d="M46.0558 8.68827C53.7584 10.7301 60.3104 15.5989 64.5338 22.1168L62.8489 22.1167C58.9734 16.5134 53.258 12.2798 46.5761 10.2893L46.0558 8.68827Z" fill="black"/>
</svg>
