<?xml version="1.0" encoding="UTF-8" standalone="no"?><svg width="104" height="104" viewBox="0 0 104 104" fill="none" xmlns="http://www.w3.org/2000/svg">
<path fill-rule="evenodd" clip-rule="evenodd" d="M52.1877 46.7436C52.1838 46.7436 52.1799 46.7435 52.176 46.7435C52.1182 46.7432 52.0605 46.7431 52.003 46.7431" fill="black"/>
<path fill-rule="evenodd" clip-rule="evenodd" d="M52.0161 0.373352H52.0104C23.5677 0.373352 0.510376 23.4307 0.510376 51.8734C0.510376 65.9634 6.16943 78.7327 15.3375 88.0307C16.3961 89.1043 17.5015 90.1316 18.6505 91.1094C19.7983 92.0863 20.9895 93.0137 22.2208 93.8883C23.4534 94.7638 24.7262 95.5864 26.0358 96.3528C27.3293 97.1098 28.6587 97.8119 30.0209 98.4561C31.3954 99.1061 32.8033 99.697 34.2414 100.226C35.6475 100.743 37.0824 101.2 38.543 101.595C40.0006 101.988 41.4837 102.32 42.9893 102.586C44.4613 102.846 45.9547 103.043 47.4668 103.176C48.964 103.307 50.4795 103.373 52.0104 103.373C53.5308 103.373 55.036 103.307 56.5231 103.178C58.0504 103.046 59.5587 102.846 61.045 102.583C62.5434 102.318 64.0194 101.988 65.4701 101.597C66.9387 101.2 68.3813 100.74 69.7947 100.22C71.2217 99.6949 72.619 99.1084 73.9834 98.4638C75.3479 97.8192 76.6795 97.1164 77.975 96.3586C79.2882 95.5905 80.5643 94.766 81.7999 93.8883C83.0183 93.0229 84.1975 92.1058 85.3341 91.1402C86.5022 90.1479 87.6255 89.1044 88.7005 88.0132C97.8584 78.7167 103.51 65.9546 103.51 51.8734C103.51 23.4326 80.4561 0.376411 52.0161 0.373352ZM1.51038 51.8734C1.51038 24.1477 23.8536 1.64068 51.5166 1.37572V22.1248L51.4671 22.1616C51.3066 22.2803 51.0718 22.4514 50.7761 22.659C50.1844 23.0744 49.3512 23.6345 48.3855 24.2133C46.4369 25.381 44.0129 26.585 41.9594 26.8789C39.0595 27.294 35.4284 26.102 32.4541 24.7467C30.9809 24.0755 29.6949 23.3766 28.7771 22.8453C28.3185 22.5799 27.9526 22.3567 27.702 22.2004C27.5767 22.1222 27.4803 22.0608 27.4157 22.0192C27.3833 21.9984 27.3589 21.9825 27.3428 21.972L27.3249 21.9603L27.3207 21.9575L27.3198 21.9569L26.7598 21.5864L26.5653 22.2291L26.565 22.2302L26.5641 22.233L26.5609 22.2436L26.5487 22.2845L26.5221 22.3749L26.5022 22.4428C26.4618 22.5816 26.4032 22.7859 26.3297 23.0495C26.1828 23.5766 25.9767 24.3409 25.739 25.2926C25.2638 27.1954 24.6617 29.8496 24.1543 32.8553C23.1431 38.845 22.4931 46.3123 24.034 52.0045C25.5984 57.7836 29.8661 63.3892 34.5508 68.1258L15.951 86.7256L15.9479 86.7287L15.7009 86.9714C6.91527 77.8845 1.51038 65.5106 1.51038 51.8734ZM52.4767 22.095L52.5166 22.1248L52.5662 22.1616C52.7266 22.2803 52.9615 22.4514 53.2571 22.659C53.8488 23.0744 54.6821 23.6345 55.6478 24.2133C57.5964 25.381 60.0203 26.585 62.0738 26.8789C64.9738 27.294 68.6048 26.102 71.5791 24.7467C73.0523 24.0755 74.3383 23.3766 75.2561 22.8453C75.7147 22.5799 76.0807 22.3567 76.3313 22.2004C76.442 22.1313 76.5301 22.0753 76.5938 22.0345L76.6176 22.0192C76.6499 21.9984 76.6743 21.9825 76.6904 21.972L76.7083 21.9603L76.7125 21.9575L76.7135 21.9568L77.2741 21.586L77.4693 22.2335L77.4725 22.2441L77.4846 22.285C77.4952 22.3209 77.5108 22.3739 77.5309 22.4433C77.5712 22.5821 77.6296 22.7865 77.7028 23.0501C77.8491 23.5773 78.0544 24.3417 78.291 25.2935C78.7643 27.1966 79.3636 29.851 79.868 32.8568C80.8731 38.8469 81.5162 46.3141 79.9719 52.0048C78.4049 57.7793 74.1399 63.3794 69.4567 68.1125L88.0662 86.722L88.327 86.9641C97.1084 77.8779 102.51 65.5069 102.51 51.8734C102.51 24.1519 80.1738 1.64746 52.5166 1.37584L52.323 21.9787L52.3256 21.9807L52.3369 21.9894L52.3832 22.0247C52.4075 22.043 52.4387 22.0666 52.4767 22.095ZM51.3507 23.4775C51.6273 23.2832 51.8528 23.1196 52.0166 22.9988C52.1804 23.1196 52.4059 23.2832 52.6826 23.4775C53.2887 23.903 54.1426 24.477 55.1337 25.071C57.099 26.2488 59.6682 27.5448 61.9321 27.8688C65.1397 28.3279 69.0018 27.02 71.9938 25.6567C73.5038 24.9687 74.8192 24.2536 75.7571 23.7108C76.1333 23.493 76.4493 23.3027 76.6932 23.1525L76.7392 23.3175C76.8834 23.837 77.0863 24.5927 77.3206 25.5348C77.7892 27.4195 78.3826 30.0479 78.8818 33.0223C78.939 33.3633 78.9949 33.7086 79.0493 34.0576C79.8877 39.4435 80.3441 45.7102 79.2569 50.7158C79.2569 50.7158 62.8242 45.7158 52.0033 45.7158C41.1825 45.7158 24.7498 50.7158 24.7498 50.7158C23.666 45.7095 24.128 39.443 24.9717 34.0576C25.0264 33.7084 25.0827 33.3629 25.1403 33.0217C25.6424 30.0476 26.2386 27.4194 26.7092 25.5349C26.9445 24.5929 27.1483 23.8373 27.293 23.3179L27.3394 23.1521C27.5834 23.3024 27.8996 23.4928 28.2762 23.7108C29.214 24.2537 30.5295 24.9687 32.0395 25.6567C35.0314 27.02 38.8936 28.3279 42.1011 27.8688C44.365 27.5448 46.9343 26.2488 48.8995 25.071C49.8907 24.477 50.7445 23.903 51.3507 23.4775ZM35.6103 67.7725C30.8247 62.9989 26.5331 57.4096 24.9993 51.7432C24.9993 51.7432 40.7872 46.8939 51.5104 46.7465C51.6758 46.7443 51.8401 46.7431 52.003 46.7431C52.0605 46.7431 52.1182 46.7432 52.176 46.7435L52.1877 46.7436C52.2572 46.7439 52.327 46.7445 52.3969 46.7453C63.1216 46.864 79.0068 51.7429 79.0068 51.7429C77.4703 57.405 73.1812 62.9889 68.3972 67.7591C67.9094 68.2455 67.4169 68.723 66.9223 69.1908C66.4152 69.6702 65.9059 70.1395 65.397 70.5977C64.8661 71.0757 64.3357 71.5415 63.8089 71.9944C63.248 72.4765 62.6911 72.9439 62.142 73.3952C61.5425 73.8879 60.9523 74.3615 60.3763 74.8145C59.7262 75.3257 59.0942 75.8105 58.4872 76.2669C57.7673 76.808 57.0826 77.3091 56.4445 77.7664C55.6118 78.3633 54.8588 78.8856 54.2112 79.3252C53.4383 79.8498 52.8207 80.2565 52.3969 80.5318C52.2389 80.6344 52.1078 80.7188 52.0056 80.7842C51.902 80.72 51.7691 80.6368 51.6093 80.5355C51.1833 80.2654 50.5667 79.866 49.8073 79.3506C49.1606 78.9116 48.4068 78.3888 47.572 77.7904C46.9339 77.3329 46.2485 76.8313 45.5276 76.2892C44.9203 75.8325 44.2877 75.3471 43.637 74.8353C43.0606 74.3819 42.4699 73.9078 41.8699 73.4145C41.3204 72.9627 40.7631 72.4949 40.2017 72.0121C39.6745 71.5589 39.1437 71.0925 38.6124 70.614C38.1032 70.1553 37.5936 69.6856 37.0862 69.2056C36.5912 68.7374 36.0984 68.2594 35.6103 67.7725ZM87.6247 87.6766C86.8054 88.4916 85.9583 89.2787 85.0849 90.0362L84.861 89.7453L67.9508 69.5926C68.2176 69.3374 68.4836 69.0794 68.7486 68.8186L87.3723 87.4424L87.6247 87.6766ZM84.0813 90.3719L84.3222 90.6848C83.4473 91.4139 82.5474 92.1141 81.6239 92.7837L81.3856 92.4537L81.3814 92.4478L66.3942 71.0439C66.6705 70.7927 66.9468 70.5382 67.2227 70.2806L84.0813 90.3719ZM80.5706 93.0332L80.8086 93.3628C79.8644 94.0194 78.8968 94.6445 77.9073 95.2368L77.6959 94.862L64.7747 72.4818C65.064 72.2308 65.3543 71.976 65.6451 71.7175L80.5664 93.0273L80.5706 93.0332ZM76.8273 95.3576L77.0441 95.7419C76.0515 96.3095 75.0379 96.8444 74.0046 97.3451L73.8058 96.9306L73.8034 96.9257L63.0761 73.9209C63.3829 73.6668 63.6918 73.4079 64.0024 73.1442L76.8249 95.3533L76.8273 95.3576ZM72.9018 97.3581L73.1004 97.7722C72.0581 98.2519 70.9968 98.6972 69.9178 99.1065L69.7522 98.6568L61.2788 75.3762C61.6078 75.1157 61.9412 74.8486 62.2779 74.5753L72.8994 97.3532L72.9018 97.3581ZM68.9793 99.4518C67.8999 99.8368 66.8036 100.186 65.6917 100.498L65.5637 100.023L59.3579 76.8627C59.7146 76.5929 60.0794 76.3136 60.4508 76.0252L68.8125 98.9988L68.9793 99.4518ZM64.598 100.283L64.7263 100.759C63.6188 101.046 62.4964 101.297 61.3607 101.51L61.272 101.019L57.2828 78.3954C57.6719 78.1149 58.0769 77.819 58.4956 77.5085L64.598 100.283ZM60.376 101.684C59.2443 101.872 58.0998 102.023 56.9439 102.135L56.9107 101.647L55.0157 79.9872C55.4338 79.7017 55.8909 79.3849 56.3809 79.039L60.2872 101.193L60.376 101.684ZM55.9136 101.725L55.9475 102.222C54.812 102.31 53.6658 102.36 52.5104 102.371V81.6484C52.5706 81.6099 52.642 81.5641 52.7241 81.5112C52.7898 81.4688 52.8624 81.4219 52.9416 81.3705C53.232 81.1818 53.6114 80.9328 54.0679 80.6276L55.9129 101.715L55.9136 101.725ZM51.5104 81.6537V102.371C50.3497 102.36 49.1985 102.309 48.058 102.221L48.1066 101.73L48.1071 101.725L49.9508 80.6511C50.4023 80.9504 50.7815 81.1947 51.0738 81.3801C51.2531 81.4938 51.3998 81.5853 51.5104 81.6537ZM47.1109 101.638L47.0617 102.134C45.9132 102.022 44.776 101.872 43.6515 101.685L43.7336 101.193L43.7343 101.188L47.6357 79.0629C48.1269 79.4098 48.5847 79.727 49.0028 80.0126L47.1114 101.632L47.1109 101.638ZM42.748 101.024L42.6667 101.511C41.5274 101.298 40.4016 101.046 39.2907 100.758L39.4218 100.286L39.423 100.282L45.5191 77.5309C45.9386 77.842 46.3443 78.1384 46.7337 78.4193L42.7487 101.019L42.748 101.024ZM38.457 100.023L38.3253 100.497C37.2173 100.186 36.1247 99.838 35.049 99.4545L35.2082 98.9988L35.2104 98.9928L43.5623 76.0461C43.9344 76.335 44.2997 76.6147 44.6569 76.885L38.4583 100.019L38.457 100.023ZM34.2663 98.6629L34.1104 99.1093C33.0261 98.6982 31.9597 98.2508 30.9127 97.7687L31.1182 97.3599L41.7338 74.5946C42.0711 74.8684 42.4049 75.1359 42.7344 75.3969L34.2685 98.6568L34.2663 98.6629ZM30.2181 96.9239L30.0083 97.3413C28.9761 96.8409 27.9635 96.3064 26.972 95.7392L27.1929 95.3585L40.008 73.162C40.3191 73.4261 40.6285 73.6855 40.9357 73.94L30.2181 96.9239ZM26.3274 94.8576L26.109 95.2341C25.121 94.6426 24.1549 94.0184 23.2122 93.3628L23.4501 93.0332L23.4543 93.0273L38.3642 71.7338C38.6554 71.9928 38.9461 72.248 39.2359 72.4994L26.3274 94.8576ZM22.6352 92.4537L22.3969 92.7837C21.4677 92.11 20.5625 91.4054 19.6825 90.6714L19.929 90.3842L19.9326 90.38L36.7856 70.2954C37.0618 70.5535 37.3385 70.8084 37.6152 71.0601L22.6394 92.4479L22.6352 92.4537ZM19.1666 89.7372L18.921 90.0233C18.0553 89.2718 17.2155 88.4914 16.403 87.6835L16.6519 87.4389L16.655 87.4358L35.2588 68.832C35.5241 69.0932 35.7905 69.3517 36.0576 69.6073L19.1702 89.7329L19.1666 89.7372Z" fill="black"/>
<path d="M78.8818 33.0223C78.8818 33.0223 62.6848 38.0221 52.011 38.022C41.3372 38.0219 25.1403 33.0217 25.1403 33.0217C25.0827 33.3629 25.0264 33.7084 24.9717 34.0576C24.9717 34.0576 41.2722 39.0576 52.0105 39.0576C62.7488 39.0576 79.0493 34.0576 79.0493 34.0576C78.9949 33.7086 78.939 33.3633 78.8818 33.0223Z" fill="black"/>
</svg>
