<?xml version="1.0" encoding="UTF-8" standalone="no"?><svg width="116" height="110" viewBox="0 0 116 110" fill="none" xmlns="http://www.w3.org/2000/svg">
<path fill-rule="evenodd" clip-rule="evenodd" d="M58.0606 0C58.3258 0 58.5682 0.149803 58.6867 0.386951L60.5906 4.19463C61.9712 4.98983 62.8884 5.9838 63.4898 7.10305C64.1127 8.26237 64.3771 9.51955 64.5068 10.7517C64.5921 11.5619 64.6218 12.4085 64.6501 13.2154C64.664 13.6113 64.6775 13.998 64.6971 14.3658C64.7335 15.0478 64.7906 15.6874 64.9001 16.2809C67.2584 13.9523 71.348 11.8818 76.7645 13.5303C82.5033 15.2769 84.2696 19.7764 86.4841 25.4174L86.6684 25.8867C88.9894 31.7892 92.0064 39.2052 100.335 47.1775C100.916 47.7328 100.99 48.5167 100.723 49.1211C100.453 49.7323 99.81 50.2037 98.9895 50.0945C89.8001 48.8713 84.9073 45.3222 80.9371 42.4422L80.5925 42.1923C78.575 40.7313 76.8422 39.5234 74.8725 38.8614C73.0492 38.2485 70.9821 38.0925 68.2669 38.7425C70.0868 39.9216 71.6923 41.4036 73.0119 43.1171L68.6294 45.6473C67.9445 44.8401 67.1697 44.1116 66.3205 43.4771C64.5337 49.9342 65.155 56.6291 67.9997 64.4466C68.2172 64.2224 68.4272 63.991 68.6294 63.7527L73.0119 66.2829C72.1331 67.4241 71.1274 68.4625 70.0161 69.3772C70.5317 70.5219 71.0888 71.691 71.6867 72.8869C71.7734 73.0602 71.7843 73.2616 71.717 73.4433C71.6497 73.6249 71.5101 73.7705 71.3315 73.8455C66.0659 76.0549 61.6158 76.4 58.0606 76.4C54.5055 76.4 50.0553 76.0549 44.7898 73.8455C44.6112 73.7705 44.4716 73.6249 44.4043 73.4433C44.337 73.2616 44.3479 73.0602 44.4345 72.8869C45.0095 71.737 45.5467 70.6118 46.0455 69.5093C44.8696 68.5629 43.8088 67.4794 42.8874 66.2829L47.2699 63.7527C47.5219 64.0496 47.786 64.3359 48.0615 64.6108C50.9775 56.668 51.6089 49.8859 49.763 43.3419C48.8414 44.0073 48.004 44.7821 47.2699 45.6473L42.8874 43.1171C44.2213 41.385 45.8473 39.8896 47.6916 38.7043C45.4975 38.2004 43.7337 38.2293 42.1808 38.595C40.4597 39.0005 38.945 39.8314 37.3411 40.9133C36.6416 41.3851 35.9377 41.8957 35.1929 42.4359C34.9785 42.5914 34.7608 42.7493 34.5388 42.9095C33.5515 43.6218 32.4932 44.3687 31.3211 45.1024C29.3394 46.3429 27.0344 47.5449 24.1714 48.5012C22.1304 49.1829 19.8121 49.7377 17.1318 50.0945C16.3112 50.2037 15.6683 49.7323 15.3981 49.1211C15.1309 48.5167 15.2055 47.7328 15.7858 47.1775C24.1149 39.2052 27.1318 31.7892 29.4529 25.8867L29.6372 25.4174C31.8517 19.7764 33.618 15.2769 39.3568 13.5303C44.7733 11.8818 48.8629 13.9523 51.2212 16.2809C51.3306 15.6874 51.3878 15.0478 51.4241 14.3658C51.4438 13.9982 51.4573 13.6121 51.4712 13.2165C51.4995 12.4095 51.5292 11.562 51.6145 10.7517C51.7442 9.51955 52.0086 8.26237 52.6315 7.10305C53.2329 5.9838 54.1501 4.98983 55.5307 4.19463L57.4345 0.386951C57.5531 0.149803 57.7955 0 58.0606 0ZM49.1957 37.9055C53.5868 47.1315 53.0525 56.3411 48.3744 67.6558C52.0994 68.7909 55.3297 69 58.0607 69C60.7916 69 64.0219 68.7909 67.7469 67.6558C63.0688 56.3411 62.5345 47.1315 66.9256 37.9055C68.1667 35.1559 68.1976 32.6164 67.0141 31.1374C66.7725 30.8355 66.8214 30.395 67.1233 30.1534C67.4251 29.9119 67.8657 29.9608 68.1072 30.2626C69.5476 32.0627 69.5566 34.6689 68.7001 37.2155C71.2895 36.7078 73.4023 36.8902 75.3186 37.5343C77.52 38.2743 79.416 39.6117 81.4136 41.0585L81.7538 41.3051C85.6774 44.1511 90.3362 47.5303 99.1742 48.7067C99.2553 48.7175 99.3051 48.7 99.3385 48.6798C99.3771 48.6565 99.4162 48.615 99.4427 48.5549C99.4959 48.4348 99.48 48.2966 99.3674 48.1888C90.816 40.0038 87.7091 32.3587 85.3655 26.3991L85.2816 26.1857C82.9691 20.3032 81.4414 16.4171 76.3568 14.8697C70.8745 13.2011 66.9799 15.7965 65.1073 18.1373C64.95 18.3339 64.6992 18.4309 64.4505 18.3913C64.2019 18.3517 63.9936 18.1816 63.9052 17.9458C63.4909 16.8408 63.3624 15.6266 63.2991 14.4404C63.2767 14.0192 63.2624 13.6071 63.2482 13.2003L63.2481 13.1969L63.248 13.1946C63.2212 12.4191 63.1949 11.6626 63.1145 10.8983C62.9942 9.75545 62.7586 8.70013 62.2565 7.7657C61.7608 6.84303 60.9857 6.00193 59.7254 5.31453L59.5327 5.2094L58.0606 2.26525L56.5886 5.2094L56.3958 5.31453C55.1356 6.00193 54.3605 6.84303 53.8648 7.7657C53.3627 8.70013 53.1271 9.75545 53.0068 10.8983C52.9263 11.6625 52.9001 12.4189 52.8732 13.1943C52.8591 13.603 52.8447 14.0172 52.8221 14.4404C52.7589 15.6266 52.6304 16.8408 52.2161 17.9458C52.1277 18.1816 51.9194 18.3517 51.6708 18.3913C51.4221 18.4309 51.1713 18.3339 51.014 18.1373C49.1414 15.7965 45.2468 13.2011 39.7645 14.8697C34.6799 16.4171 33.1522 20.3032 30.8397 26.1857L30.7558 26.3991C28.4122 32.3587 25.3053 40.0038 16.7538 48.1888C16.6413 48.2966 16.6254 48.4348 16.6785 48.5549C16.7051 48.615 16.7442 48.6565 16.7828 48.6798C16.8162 48.7 16.866 48.7175 16.9471 48.7067C19.5426 48.3612 21.7741 47.8259 23.7279 47.1733C26.4655 46.2589 28.6702 45.1101 30.5782 43.9157C31.7108 43.2068 32.7396 42.4813 33.7196 41.7742C33.9343 41.6193 34.1472 41.4648 34.3587 41.3114C35.107 40.7686 35.837 40.2391 36.5582 39.7526C38.2178 38.6332 39.8972 37.6946 41.8599 37.2323C43.5009 36.8458 45.3037 36.8003 47.4212 37.2155C46.5647 34.6689 46.5737 32.0627 48.0141 30.2626C48.2556 29.9608 48.6961 29.9119 48.998 30.1534C49.2999 30.395 49.3487 30.8355 49.1072 31.1374C47.9236 32.6164 47.9546 35.1559 49.1957 37.9055ZM68.2966 68.9515C64.3345 70.1788 60.9076 70.4 58.0607 70.4C55.2137 70.4 51.7868 70.1788 47.8246 68.9515C47.2738 70.2183 46.6727 71.512 46.0226 72.8354C50.7571 74.6975 54.7745 75 58.0606 75C61.3467 75 65.3642 74.6975 70.0987 72.8354C69.4485 71.512 68.8475 70.2183 68.2966 68.9515Z" fill="black"/>
<path d="M71.7271 52.2H76.7866C76.5682 50.5378 76.1348 48.9432 75.5154 47.4451L71.1325 49.9756C71.3892 50.6919 71.5892 51.4351 71.7271 52.2Z" fill="black"/>
<path d="M75.5154 61.9548C76.1348 60.4568 76.5682 58.8622 76.7866 57.2H71.7271C71.5892 57.9648 71.3892 58.7081 71.1325 59.4244L75.5154 61.9548Z" fill="black"/>
<path d="M44.7668 49.9756L40.3839 47.4451C39.7645 48.9432 39.3311 50.5378 39.1127 52.2H44.1722C44.3101 51.4351 44.5101 50.6919 44.7668 49.9756Z" fill="black"/>
<path d="M44.1722 57.2H39.1127C39.3311 58.8622 39.7645 60.4568 40.3839 61.9548L44.7668 59.4244C44.5101 58.7081 44.3101 57.9648 44.1722 57.2Z" fill="black"/>
<path fill-rule="evenodd" clip-rule="evenodd" d="M6.62915 54.6081C6.62915 54.6081 6.62926 54.6078 7.25426 54.9231C7.9059 54.6674 7.90599 54.6676 7.90599 54.6676L7.90764 54.6718L7.91159 54.682L7.92583 54.7192C7.93804 54.7512 7.95553 54.7976 7.97745 54.857C8.02127 54.9759 8.08287 55.147 8.15535 55.36C8.30011 55.7853 8.4893 56.3801 8.66709 57.0591C9.01563 58.3901 9.34851 60.1456 9.14599 61.5819C9.00223 62.6015 8.54272 63.7835 8.14617 64.6711C7.94401 65.1236 7.75047 65.5164 7.60734 65.7964C7.57606 65.8576 7.54714 65.9135 7.52102 65.9635L7.47267 66.0555C7.48441 66.1609 7.50237 66.3077 7.52886 66.4935C7.58978 66.9208 7.6958 67.5543 7.87515 68.3648C8.23386 69.9858 8.88577 72.314 10.0565 75.1152C12.397 80.7153 16.8141 88.2135 25.1218 95.7361C30.5566 100.657 36.9203 103.62 41.9434 105.353C44.452 106.219 46.6182 106.775 48.1548 107.114C48.9229 107.284 49.5331 107.399 49.9493 107.471C50.1574 107.508 50.3169 107.533 50.4235 107.55C50.4767 107.558 50.5167 107.564 50.5429 107.568L50.5718 107.572L50.5783 107.573L50.5795 107.573C50.9625 107.625 51.2311 107.977 51.1792 108.36C51.1274 108.743 50.7748 109.012 50.3917 108.96L50.4855 108.266C50.3917 108.96 50.3917 108.96 50.3917 108.96L50.3903 108.96L50.3875 108.959L50.3778 108.958L50.3427 108.953C50.3208 108.95 50.2916 108.946 50.2555 108.94L50.2103 108.933C50.095 108.916 49.9263 108.888 49.7088 108.851C49.2737 108.775 48.6431 108.655 47.8531 108.481C46.2735 108.132 44.0545 107.563 41.4868 106.677C36.3574 104.907 29.8044 101.865 24.1821 96.7739C15.7087 89.1013 11.1774 81.4279 8.76476 75.6551C7.55892 72.7699 6.8831 70.3614 6.50822 68.6673C6.32077 67.8202 6.20853 67.1516 6.14288 66.6911C6.11005 66.4608 6.08887 66.2826 6.07576 66.16L6.06823 66.0872L6.05924 66.0662C6.02452 65.9848 5.97532 65.8675 5.91622 65.7214C5.79818 65.4297 5.63985 65.0209 5.47831 64.5519C5.16147 63.632 4.80816 62.4126 4.7568 61.3829C4.68448 59.9328 5.17812 58.2142 5.64857 56.9205C5.88859 56.2604 6.13236 55.6853 6.31618 55.2749C6.40821 55.0694 6.48553 54.9045 6.54028 54.7902C6.56765 54.733 6.58941 54.6884 6.60456 54.6576L6.62223 54.6219L6.62712 54.6121L6.62854 54.6093L6.62915 54.6081ZM6.83152 64.1811L6.86793 64.1001C7.25558 63.2324 7.64492 62.2006 7.7597 61.3865C7.92084 60.2436 7.65442 58.7185 7.31276 57.4138C7.26354 57.2258 7.21335 57.0446 7.16353 56.8721C7.09778 57.0396 7.03084 57.2159 6.96428 57.3989C6.50312 58.6671 6.0976 60.161 6.15506 61.3132C6.19601 62.1343 6.4923 63.1968 6.802 64.096L6.83152 64.1811Z" fill="black"/>
<path d="M7.25426 54.9231L6.62915 54.6081L7.3342 53.2102L7.90599 54.6676L7.25426 54.9231Z" fill="black"/>
<path fill-rule="evenodd" clip-rule="evenodd" d="M12.8343 66.7788C12.8343 66.7788 12.8345 66.7786 13.3121 67.2904C14.0034 67.1805 14.0034 67.1807 14.0034 67.1807L14.0036 67.182L14.0041 67.1847L14.0054 67.1935L14.01 67.2244C14.0139 67.2507 14.0192 67.2883 14.0256 67.3361C14.0384 67.4316 14.0552 67.568 14.0724 67.7361C14.1067 68.0716 14.1427 68.5376 14.149 69.0594C14.1612 70.0651 14.0676 71.4227 13.5219 72.4161C13.2429 72.924 12.7844 73.4465 12.431 73.8159C12.2482 74.0069 12.0812 74.1696 11.9596 74.2848C11.8987 74.3425 11.8489 74.3886 11.8138 74.4208L11.7725 74.4583L11.7609 74.4686L11.7576 74.4716L11.7565 74.4726C11.7565 74.4726 11.7559 74.4732 11.2908 73.95C10.6277 74.1743 10.6277 74.1741 10.6277 74.1741L10.6252 74.1668L10.6196 74.1499C10.6165 74.1403 10.6124 74.1279 10.6077 74.113C10.6053 74.1058 10.6028 74.0979 10.6001 74.0895C10.5837 74.038 10.5608 73.9645 10.5339 73.8734C10.4803 73.6918 10.4101 73.4379 10.3432 73.1476C10.2147 72.5889 10.0787 71.8131 10.1463 71.1555C10.2609 70.0396 10.9932 68.9194 11.5958 68.1501C11.9102 67.7488 12.2171 67.4087 12.4452 67.169C12.5596 67.0489 12.655 66.9531 12.7226 66.8865C12.7564 66.8532 12.7834 66.8272 12.8024 66.809L12.8248 66.7877L12.8313 66.7816L12.8333 66.7797L12.8343 66.7788ZM11.6554 72.5931C11.9125 72.3057 12.1521 72.002 12.2949 71.742C12.6528 71.0905 12.761 70.0537 12.7491 69.0764L12.7485 69.0296L12.747 68.9513L12.698 69.0134C12.1122 69.7612 11.6098 70.6093 11.5389 71.2987C11.5026 71.6517 11.5612 72.1289 11.6554 72.5931Z" fill="black"/>
<path d="M11.2908 73.95L11.7565 74.4726L10.9663 75.175L10.6277 74.1741L11.2908 73.95Z" fill="black"/>
<path d="M13.3121 67.2904L12.8343 66.7788L13.7967 65.8807L14.0034 67.1807L13.3121 67.2904Z" fill="black"/>
<path fill-rule="evenodd" clip-rule="evenodd" d="M1.00278 70.1802C1.00278 70.1802 1.00267 70.1799 1.65186 69.9181C1.79764 69.2334 1.79792 69.2335 1.79792 69.2335L1.79911 69.2337L1.80946 69.236L1.83663 69.242C1.85968 69.2472 1.89247 69.2547 1.9339 69.2646C2.01671 69.2845 2.13435 69.3138 2.2781 69.3529C2.5648 69.4309 2.95942 69.5489 3.3908 69.709C4.21802 70.0159 5.31676 70.5258 5.97238 71.3026C6.30736 71.6996 6.59401 72.2473 6.78519 72.6533C6.88455 72.8644 6.96552 73.0534 7.02179 73.1899C7.05 73.2583 7.07218 73.314 7.08755 73.3532L7.10545 73.3994L7.1104 73.4124L7.11186 73.4162L7.11232 73.4174C7.11232 73.4174 7.11261 73.4182 6.45726 73.6642C6.42836 74.3636 6.42817 74.3636 6.42817 74.3636L6.42583 74.3635L6.42109 74.3633L6.40515 74.3625C6.39174 74.3619 6.37279 74.3609 6.34887 74.3595C6.30107 74.3567 6.2332 74.3522 6.14967 74.3454C5.98309 74.332 5.7517 74.3094 5.49133 74.2724C4.99296 74.2015 4.30418 74.0671 3.77462 73.7981C2.87515 73.3413 2.17951 72.3712 1.73964 71.6354C1.50884 71.2493 1.32624 70.889 1.20131 70.6255C1.13865 70.4932 1.08999 70.3843 1.05655 70.3074C1.03982 70.2688 1.02687 70.2383 1.01785 70.2167L1.00727 70.1911L1.00422 70.1837L1.00325 70.1813L1.00278 70.1802ZM5.3028 72.8219C5.17325 72.5833 5.03531 72.363 4.90248 72.2056C4.52061 71.7531 3.79055 71.3637 3.03576 71.0715C3.44337 71.723 3.92897 72.3063 4.40854 72.5499C4.63579 72.6653 4.96002 72.7554 5.3028 72.8219Z" fill="black"/>
<path d="M6.45726 73.6642L7.11232 73.4174L7.48388 74.4073L6.42817 74.3636L6.45726 73.6642Z" fill="black"/>
<path d="M1.65186 69.9181L1.00278 70.1802L0.510376 68.9593L1.79792 69.2335L1.65186 69.9181Z" fill="black"/>
<path fill-rule="evenodd" clip-rule="evenodd" d="M16.7351 75.9959C16.7683 76.023 16.8775 76.1125 17.2357 76.4065L16.7206 75.9838L17.3666 75.1967L17.8701 76.0817L17.2617 76.4279C17.8701 76.0817 17.8701 76.0817 17.8701 76.0817L17.8724 76.0858L17.8771 76.094L17.893 76.1226C17.9064 76.147 17.9253 76.1818 17.9488 76.226C17.9958 76.3144 18.0612 76.4408 18.1374 76.5975C18.2893 76.9098 18.4864 77.3473 18.6659 77.8462C18.8445 78.3428 19.0113 78.9157 19.0941 79.4962C19.176 80.0708 19.1824 80.6986 18.9981 81.2794C18.7732 81.988 18.2401 82.6876 17.8259 83.1656C17.6094 83.4154 17.4056 83.6268 17.2559 83.7759C17.1808 83.8506 17.1187 83.9103 17.0747 83.9519C17.0526 83.9727 17.0351 83.9891 17.0226 84.0006L17.0079 84.0142L17.0035 84.0182L17.0021 84.0195C17.0021 84.0195 17.0012 84.0203 16.5311 83.5016C15.9245 83.8509 15.9244 83.8508 15.9244 83.8508L15.9231 83.8486L15.9204 83.8438L15.911 83.8273C15.9031 83.8132 15.8918 83.7931 15.8776 83.7676C15.8493 83.7165 15.8094 83.6433 15.7615 83.5525C15.6658 83.3712 15.5369 83.1171 15.404 82.8254C15.1483 82.2643 14.8386 81.4818 14.7699 80.7999C14.652 79.6281 15.2 78.3878 15.6829 77.5294C15.9346 77.0819 16.1915 76.699 16.3851 76.4281C16.4822 76.2923 16.5642 76.1835 16.6228 76.1077C16.652 76.0697 16.6755 76.0399 16.6922 76.0191L16.7119 75.9945L16.7177 75.9874L16.7206 75.9838C16.7206 75.9838 16.7205 75.984 16.7351 75.9959ZM16.7679 82.2488C17.1641 81.7915 17.5309 81.2741 17.6636 80.8559C17.7605 80.5506 17.7739 80.1554 17.7081 79.6938C17.6431 79.2381 17.5075 78.7619 17.3485 78.3201C17.2832 78.1384 17.2148 77.9652 17.1475 77.8046C17.0672 77.9329 16.9847 78.0707 16.9031 78.2157C16.4409 79.0374 16.0913 79.9481 16.1629 80.6597C16.2068 81.0961 16.4294 81.6995 16.6779 82.2448L16.7101 82.3148C16.7218 82.3015 16.7336 82.288 16.7455 82.2745C16.7529 82.266 16.7604 82.2574 16.7679 82.2488Z" fill="black"/>
<path d="M16.5311 83.5016L17.0012 84.0203L16.3578 84.6034L15.9244 83.8508L16.5311 83.5016Z" fill="black"/>
<path fill-rule="evenodd" clip-rule="evenodd" d="M6.54262 79.1786C7.42004 79.2717 8.61068 79.4944 9.43787 80.0852C9.86052 80.387 10.2736 80.847 10.5591 81.1932C10.7075 81.3732 10.8327 81.5363 10.9209 81.6547C10.9652 81.7141 11.0004 81.7626 11.025 81.7968L11.0538 81.8371L11.0618 81.8484L11.0641 81.8518L11.0649 81.8529C11.0649 81.8529 11.0653 81.8535 10.4911 82.2538C10.6358 82.9387 10.6356 82.9387 10.6356 82.9387L10.6334 82.9392L10.6287 82.9402L10.6131 82.9434L10.578 82.9504L10.5578 82.9543C10.5108 82.9633 10.4439 82.9758 10.3613 82.9899C10.1966 83.018 9.96674 83.0532 9.70529 83.0817C9.20486 83.1361 8.50423 83.176 7.92464 83.0462C6.94021 82.8258 6.02649 82.0575 5.4185 81.4532C5.09948 81.1361 4.83353 80.832 4.64737 80.6075C4.55399 80.4949 4.47994 80.4014 4.42852 80.335C4.4028 80.3018 4.38269 80.2754 4.36862 80.2567L4.35206 80.2346L4.34726 80.2281L4.34575 80.2261L4.345 80.225C4.345 80.225 4.34483 80.2248 4.90922 79.8107C4.88137 79.1113 4.88165 79.1113 4.88165 79.1113L4.88287 79.1112L4.88539 79.1111L4.89344 79.1108L4.92127 79.11C4.94489 79.1093 4.97852 79.1085 5.02112 79.1079C5.10625 79.1066 5.2275 79.106 5.37646 79.1084C5.67354 79.1132 6.08507 79.13 6.54262 79.1786ZM6.53517 80.5866C7.09106 81.1172 7.70571 81.5625 8.23058 81.6801C8.47929 81.7358 8.81573 81.743 9.16432 81.7227C8.97985 81.5236 8.79176 81.3441 8.62418 81.2244C8.14237 80.8803 7.33875 80.6833 6.53517 80.5866Z" fill="black"/>
<path d="M4.90922 79.8107L4.345 80.225L3.56628 79.1637L4.88165 79.1113L4.90922 79.8107Z" fill="black"/>
<path d="M10.4911 82.2538L11.0649 81.8529L11.6694 82.7202L10.6356 82.9387L10.4911 82.2538Z" fill="black"/>
<path fill-rule="evenodd" clip-rule="evenodd" d="M22.2911 83.3203C22.2911 83.3203 22.2912 83.3201 22.9122 83.643C23.5272 83.3086 23.5273 83.3089 23.5273 83.3089L23.528 83.3101L23.5294 83.3127L23.5341 83.3214L23.5506 83.3524L23.571 83.3913C23.582 83.4124 23.5948 83.4372 23.6094 83.4657C23.6592 83.5629 23.729 83.7026 23.8112 83.8763C23.9753 84.2229 24.1907 84.7086 24.3954 85.2652C24.7918 86.3428 25.2005 87.8207 24.996 89.0722C24.8914 89.7125 24.6013 90.4408 24.3619 90.9726C24.2386 91.2465 24.1214 91.4841 24.0349 91.6536C23.9916 91.7385 23.9558 91.8067 23.9304 91.8542L23.9006 91.9098L23.8923 91.9251L23.8899 91.9295L23.8891 91.9308C23.8891 91.9308 23.8887 91.9316 23.2757 91.5936C22.7255 92.0264 22.7254 92.0263 22.7254 92.0263L22.7202 92.0196L22.708 92.0039C22.6976 91.9905 22.6829 91.9714 22.6644 91.947C22.6275 91.8983 22.5752 91.8284 22.5119 91.7411C22.3857 91.567 22.2142 91.3218 22.0326 91.0364C21.6817 90.4848 21.2468 89.7121 21.0727 88.9945C20.7776 87.7777 21.1303 86.3145 21.4856 85.257C21.67 84.7082 21.8698 84.2275 22.0232 83.8842C22.1001 83.7121 22.1659 83.5734 22.213 83.4767L22.2348 83.4322L22.2537 83.3941L22.2688 83.364L22.2845 83.333L22.289 83.3242L22.2911 83.3203ZM23.6143 88.8464C23.7559 87.9798 23.4681 86.7995 23.0815 85.7485C23.0323 85.6149 22.9824 85.4855 22.9328 85.3615C22.8924 85.4715 22.8521 85.5856 22.8127 85.7029C22.4661 86.7344 22.2392 87.8644 22.4333 88.6646C22.5444 89.1226 22.8466 89.6983 23.1674 90.2114C23.3676 89.7464 23.5496 89.2425 23.6143 88.8464Z" fill="black"/>
<path d="M23.2757 91.5936L23.8891 91.9308L23.3786 92.8568L22.7254 92.0263L23.2757 91.5936Z" fill="black"/>
<path d="M22.9122 83.643L22.2911 83.3203L22.8985 82.1524L23.5273 83.3089L22.9122 83.643Z" fill="black"/>
<path fill-rule="evenodd" clip-rule="evenodd" d="M14.9724 88.7938C15.4265 89.0368 15.8911 89.4362 16.2156 89.7399C16.3843 89.8978 16.528 90.0421 16.6297 90.1471C16.6509 90.169 16.6704 90.1893 16.6879 90.2077C16.7126 90.2335 16.7334 90.2556 16.75 90.2734L16.7834 90.3093L16.7927 90.3195L16.7955 90.3225L16.7964 90.3235C16.7964 90.3235 16.7969 90.3241 16.2789 90.7948C16.5105 91.4554 16.5103 91.4555 16.5103 91.4555L16.5081 91.4562L16.5037 91.4578L16.4887 91.4629L16.4357 91.4807C16.3907 91.4956 16.3266 91.5163 16.2472 91.5407C16.089 91.5893 15.8678 91.6532 15.6145 91.7144C15.1301 91.8316 14.4465 91.9602 13.8598 91.9064C12.8632 91.8151 11.8671 91.1761 11.1932 90.6602C10.8395 90.3893 10.5395 90.1245 10.3281 89.9277C10.222 89.829 10.1374 89.7465 10.0784 89.6879C10.0489 89.6586 10.0258 89.6352 10.0096 89.6186L9.99047 89.5989L9.98492 89.5932L9.98317 89.5914L9.9823 89.5904C9.9823 89.5904 9.9821 89.5902 10.4886 89.107C10.371 88.417 10.3713 88.4169 10.3713 88.4169L10.3725 88.4167L10.375 88.4163L10.3829 88.415L10.4101 88.4106L10.4563 88.4035L10.5079 88.3958C10.5914 88.3838 10.7104 88.3677 10.857 88.3511C11.1494 88.3179 11.5558 88.282 12.0114 88.2715C12.8847 88.2513 14.0834 88.3182 14.9724 88.7938ZM13.9875 90.5123C14.2342 90.5349 14.5587 90.5006 14.8927 90.4382C14.6904 90.2703 14.4877 90.1223 14.3119 90.0282C13.8014 89.7551 12.9988 89.6631 12.2049 89.6687C12.8129 90.1126 13.4643 90.4643 13.9875 90.5123Z" fill="black"/>
<path d="M10.4886 89.107L9.9823 89.5904L9.07357 88.638L10.3713 88.4169L10.4886 89.107Z" fill="black"/>
<path d="M16.2789 90.7948L16.7964 90.3235L17.5074 91.1059L16.5103 91.4555L16.2789 90.7948Z" fill="black"/>
<path d="M28.9955 89.4213L29.8241 90.4439L29.2802 90.8846L28.6108 90.68L28.9955 89.4213Z" fill="black"/>
<path fill-rule="evenodd" clip-rule="evenodd" d="M29.2802 90.8846C29.8241 90.4439 29.8241 90.4439 29.8241 90.4439L29.8251 90.4452L29.827 90.4475L29.8332 90.4552L29.855 90.4826C29.8736 90.5061 29.9001 90.54 29.9335 90.5833C30.0001 90.6699 30.0942 90.7946 30.2066 90.9504C30.4311 91.2613 30.7313 91.6997 31.0339 92.2098C31.6197 93.1973 32.2905 94.5761 32.3171 95.8439C32.3307 96.4926 32.178 97.2615 32.0394 97.8279C31.9681 98.1197 31.8961 98.3747 31.8418 98.5571C31.8147 98.6484 31.7918 98.722 31.7756 98.7734L31.7563 98.8335L31.7509 98.85L31.7494 98.8548L31.7489 98.8562C31.7489 98.8562 31.7486 98.8571 31.0843 98.6363L31.7489 98.8562L31.4154 99.8596L30.6221 99.162L30.6568 99.1223C30.622 99.1619 30.6221 99.162 30.6221 99.162L30.6213 99.1613L30.6199 99.1601L30.6156 99.1563L30.6008 99.143C30.5881 99.1317 30.5702 99.1156 30.5476 99.095C30.5024 99.0538 30.4382 98.9946 30.3602 98.9203C30.2043 98.772 29.9911 98.5621 29.7607 98.3146C29.3152 97.836 28.7469 97.1554 28.4452 96.4814C27.9336 95.3387 28.0142 93.8356 28.1711 92.7312C28.2526 92.158 28.3615 91.649 28.45 91.2834C28.4943 91.1002 28.5337 90.9519 28.5624 90.8483C28.5713 90.816 28.5792 90.7881 28.5859 90.7647L28.5968 90.7272L28.6066 90.694L28.6094 90.6845L28.6108 90.68C28.6108 90.68 28.6108 90.68 29.2802 90.8846ZM30.9174 95.8733C30.899 94.9954 30.4012 93.8872 29.8298 92.9241C29.7571 92.8016 29.6845 92.6835 29.6131 92.5706C29.5935 92.6861 29.5746 92.8056 29.5572 92.9281C29.4041 94.0055 29.3866 95.1579 29.723 95.9094C29.9156 96.3396 30.3175 96.8507 30.7264 97.2968C30.8386 96.8032 30.9259 96.2745 30.9174 95.8733Z" fill="black"/>
<path fill-rule="evenodd" clip-rule="evenodd" d="M37.2599 92.9403L38.2268 93.8332L38.1731 93.8914C38.2269 93.8333 38.2268 93.8332 38.2268 93.8332L38.2281 93.8344L38.2307 93.8367L38.2393 93.8448L38.2701 93.8738C38.2881 93.8907 38.3113 93.9129 38.3394 93.9398L38.3826 93.9816C38.4785 94.0748 38.6146 94.2095 38.7787 94.3789C39.1063 94.7172 39.5484 95.197 40.0058 95.763C40.8967 96.8655 41.9383 98.406 42.1887 99.9082C42.317 100.678 42.2687 101.628 42.1999 102.344C42.1647 102.711 42.1222 103.033 42.0885 103.264C42.0716 103.38 42.0569 103.473 42.0463 103.538C42.0409 103.57 42.0366 103.596 42.0336 103.614L42.03 103.634L42.0287 103.642C42.0287 103.642 42.0285 103.643 41.3394 103.52L42.0287 103.642L41.8428 104.683L40.9575 104.106L41.0166 104.015C40.9574 104.106 40.9575 104.106 40.9575 104.106L40.9565 104.106L40.9548 104.105L40.9491 104.101L40.9292 104.088C40.9121 104.076 40.8877 104.06 40.8568 104.039C40.8438 104.03 40.8296 104.021 40.8143 104.01C40.7898 103.993 40.7624 103.975 40.7325 103.954C40.6925 103.926 40.6478 103.895 40.5991 103.861C40.384 103.708 40.0883 103.491 39.7654 103.231C39.1371 102.726 38.3385 102.008 37.8648 101.261C37.0623 99.9954 36.8923 98.1827 36.8882 96.8055C36.8861 96.0957 36.9286 95.4585 36.9715 94.999C36.9931 94.7687 37.0148 94.5819 37.0313 94.4515C37.0352 94.4208 37.0388 94.3932 37.042 94.3689C37.0435 94.3576 37.045 94.347 37.0463 94.3372L37.0515 94.2995L37.0575 94.258L37.0592 94.2464L37.0597 94.243L37.0599 94.2419C37.0599 94.2419 37.06 94.2411 37.7519 94.3474L37.0599 94.2419L37.2599 92.9403ZM40.8009 102.266L40.8063 102.21C40.8731 101.515 40.9043 100.717 40.8078 100.138C40.6215 99.0208 39.7899 97.7234 38.9168 96.6429C38.7075 96.3838 38.501 96.1435 38.3087 95.9285C38.2955 96.1984 38.2873 96.4929 38.2882 96.8013C38.2922 98.1512 38.4743 99.6078 39.0471 100.511C39.39 101.052 40.0332 101.651 40.6425 102.14L40.7054 102.191C40.7242 102.205 40.7428 102.22 40.7614 102.235C40.7746 102.245 40.7878 102.256 40.8009 102.266Z" fill="black"/>
<path fill-rule="evenodd" clip-rule="evenodd" d="M15.9741 95.1571C17.0995 94.9295 18.6224 94.7506 19.8282 95.1433C20.4451 95.3443 21.1207 95.7419 21.6098 96.0594C21.8618 96.223 22.0788 96.375 22.2331 96.4863C22.2773 96.5182 22.3165 96.5468 22.3501 96.5715C22.3751 96.59 22.397 96.6063 22.4155 96.6201L22.4658 96.6581L22.4797 96.6686L22.4837 96.6717L22.4849 96.6726C22.4849 96.6726 22.4855 96.6731 22.4386 96.734L22.4849 96.6726L23.3223 97.3181L22.4022 97.8372L22.0582 97.2276C22.4022 97.8372 22.4022 97.8372 22.4022 97.8372L22.4012 97.8378L22.3997 97.8386L22.3947 97.8414L22.3773 97.8511C22.3624 97.8593 22.3413 97.8709 22.3144 97.8855C22.2606 97.9146 22.1835 97.9556 22.0877 98.0049C21.8964 98.1031 21.6279 98.2353 21.3182 98.3712C20.7196 98.634 19.8897 98.9463 19.154 99.009C17.9064 99.1154 16.5139 98.5439 15.5229 98.0317C15.0085 97.7659 14.5639 97.4953 14.2479 97.2913C14.0896 97.1891 13.9626 97.103 13.8742 97.0417C13.8299 97.0111 13.7953 96.9866 13.7712 96.9694L13.743 96.9492L13.735 96.9434L13.7326 96.9416L13.7318 96.941C13.7318 96.941 13.7312 96.9406 14.145 96.376C13.9082 95.7173 13.9084 95.7172 13.9084 95.7172L13.9097 95.7167L13.9125 95.7157L13.9219 95.7124L13.955 95.7009L13.999 95.6858C14.0209 95.6783 14.0466 95.6697 14.0759 95.6599C14.1796 95.6255 14.3283 95.5778 14.5125 95.523C14.88 95.4136 15.3929 95.2747 15.9741 95.1571ZM15.8466 96.6174C15.9491 96.674 16.0557 96.7312 16.1657 96.788C17.1324 97.2877 18.2147 97.684 19.035 97.6141C19.5046 97.574 20.1197 97.363 20.6756 97.124C20.2466 96.8554 19.7762 96.5988 19.3946 96.4745C18.5596 96.2026 17.3493 96.3073 16.2517 96.5293C16.1121 96.5576 15.9766 96.5872 15.8466 96.6174Z" fill="black"/>
<path d="M14.145 96.376L13.7318 96.941L12.6697 96.1626L13.9084 95.7172L14.145 96.376Z" fill="black"/>
<path fill-rule="evenodd" clip-rule="evenodd" d="M25.7343 103.341C26.5986 103.704 27.5301 103.971 28.1939 103.889C28.4955 103.852 28.8653 103.729 29.2277 103.574C28.9039 103.416 28.5743 103.278 28.3035 103.208C27.5965 103.024 26.6235 103.136 25.7343 103.341Z" fill="black"/>
<path d="M23.855 103.181L23.4925 103.78L22.2898 103.051L23.5961 102.531L23.855 103.181Z" fill="black"/>
<path d="M30.7112 103.6L31.0864 103.009L32.0299 103.609L31.0782 104.196L30.7112 103.6Z" fill="black"/>
<path fill-rule="evenodd" clip-rule="evenodd" d="M33.9598 106.739C34.8749 106.405 36.1425 106.054 37.2497 106.207C37.8143 106.286 38.4646 106.513 38.9393 106.701C39.1842 106.798 39.3973 106.89 39.5494 106.958C39.6256 106.992 39.687 107.02 39.7298 107.04L39.7798 107.064L39.7936 107.071L39.7989 107.073C39.7989 107.073 39.7996 107.073 39.4948 107.704C39.9287 108.253 39.9286 108.253 39.9286 108.253L39.9266 108.255L39.9227 108.258L39.9093 108.268C39.8979 108.277 39.8819 108.289 39.8615 108.305C39.8512 108.313 39.8397 108.321 39.8272 108.331C39.8138 108.341 39.799 108.352 39.7831 108.364C39.7555 108.384 39.7243 108.407 39.6898 108.432C39.5449 108.537 39.3405 108.68 39.1014 108.832C38.641 109.124 37.9855 109.492 37.3591 109.644C36.3054 109.901 35.0077 109.627 34.074 109.353C33.587 109.209 33.1583 109.053 32.8514 108.932C32.6976 108.872 32.5734 108.82 32.4867 108.783C32.4433 108.765 32.4092 108.75 32.3854 108.739L32.3575 108.727L32.3496 108.723L32.3471 108.722L32.346 108.722C32.346 108.722 32.3459 108.722 32.3745 108.659L32.346 108.722L31.0667 108.138L32.3035 107.469L32.6364 108.085C32.3035 107.469 32.3035 107.469 32.3035 107.469L32.3049 107.468L32.3072 107.467L32.3148 107.463L32.3413 107.449C32.3639 107.437 32.3961 107.42 32.4372 107.399C32.5194 107.358 32.6372 107.299 32.7838 107.23C33.0763 107.093 33.4868 106.912 33.9598 106.739ZM34.5216 108.025C35.4222 108.285 36.3784 108.442 37.0283 108.284C37.3235 108.212 37.6764 108.046 38.0184 107.851C37.6785 107.732 37.335 107.633 37.0579 107.594C36.3344 107.494 35.381 107.718 34.5216 108.025Z" fill="black"/>
<path d="M39.4948 107.704L39.7989 107.073L40.8057 107.56L39.9286 108.253L39.4948 107.704Z" fill="black"/>
<path fill-rule="evenodd" clip-rule="evenodd" d="M108.026 54.6804L107.993 54.6674L108.565 53.2102L109.27 54.6078L108.645 54.9231C109.27 54.6078 109.27 54.6078 109.27 54.6078L109.271 54.6093L109.277 54.6219L109.295 54.6576C109.31 54.6884 109.332 54.733 109.359 54.7902C109.414 54.9045 109.491 55.0694 109.583 55.2749C109.767 55.6853 110.011 56.2604 110.251 56.9205C110.721 58.2142 111.215 59.9328 111.143 61.3829C111.091 62.4126 110.738 63.632 110.421 64.5519C110.259 65.0209 110.101 65.4297 109.983 65.7214C109.924 65.8675 109.875 65.9848 109.84 66.0662L109.831 66.0872L109.824 66.16C109.81 66.2826 109.789 66.4608 109.756 66.6911C109.691 67.1516 109.579 67.8202 109.391 68.6673C109.016 70.3614 108.34 72.7699 107.135 75.6551C104.722 81.4279 100.191 89.1013 91.7172 96.7739C86.095 101.865 79.5419 104.907 74.4125 106.677C71.8448 107.563 69.6258 108.132 68.0462 108.481C67.2563 108.655 66.6256 108.775 66.1906 108.851C65.973 108.888 65.8043 108.916 65.689 108.933L65.6438 108.94C65.629 108.942 65.6154 108.945 65.6029 108.946C65.585 108.949 65.5695 108.951 65.5566 108.953L65.5215 108.958L65.5119 108.959L65.5091 108.96C65.5091 108.96 65.5076 108.96 65.4138 108.266L65.5076 108.96C65.1245 109.012 64.7719 108.743 64.7201 108.36C64.6683 107.977 64.9367 107.625 65.3197 107.573L65.3211 107.573L65.3276 107.572L65.3564 107.568C65.3826 107.564 65.4226 107.558 65.4758 107.55C65.5824 107.533 65.742 107.508 65.95 107.471C66.3663 107.399 66.9764 107.284 67.7445 107.114C69.2811 106.775 71.4473 106.219 73.9559 105.353C78.979 103.62 85.3427 100.657 90.7775 95.7361C99.0853 88.2135 103.502 80.7153 105.843 75.1152C107.014 72.314 107.665 69.9858 108.024 68.3648C108.204 67.5543 108.31 66.9208 108.37 66.4935C108.397 66.3077 108.415 66.1609 108.427 66.0555C108.39 65.9856 108.344 65.8984 108.292 65.7964C108.149 65.5164 107.955 65.1236 107.753 64.6711C107.357 63.7835 106.897 62.6015 106.753 61.5819C106.551 60.1456 106.884 58.3901 107.232 57.0591C107.41 56.3801 107.599 55.7853 107.744 55.36C107.816 55.147 107.878 54.9759 107.922 54.857C107.944 54.7976 107.961 54.7512 107.973 54.7192L107.988 54.682L107.993 54.6689L107.993 54.6674C107.993 54.6674 107.993 54.6675 108.026 54.6804ZM109.031 64.1001L109.068 64.1811L109.097 64.096C109.407 63.1968 109.703 62.1343 109.744 61.3132C109.802 60.161 109.396 58.6671 108.935 57.3989C108.868 57.2159 108.802 57.0396 108.736 56.8721C108.686 57.0446 108.636 57.2258 108.587 57.4138C108.245 58.7185 107.978 60.2436 108.14 61.3865C108.254 62.2006 108.644 63.2324 109.031 64.1001Z" fill="black"/>
<path d="M103.065 66.7786L102.587 67.2904L101.896 67.1805L102.103 65.8807L103.065 66.7786Z" fill="black"/>
<path fill-rule="evenodd" clip-rule="evenodd" d="M104.608 73.95C104.143 74.4732 104.143 74.4731 104.143 74.4731L104.142 74.4716L104.127 74.4583L104.086 74.4208C104.05 74.3886 104.001 74.3425 103.94 74.2848C103.818 74.1696 103.651 74.0069 103.468 73.8159C103.115 73.4465 102.656 72.924 102.377 72.4161C101.832 71.4227 101.738 70.0651 101.75 69.0594C101.757 68.5376 101.793 68.0716 101.827 67.7361C101.844 67.568 101.861 67.4316 101.874 67.3361C101.88 67.2883 101.885 67.2507 101.889 67.2244L101.894 67.1935L101.895 67.1847L101.896 67.182L101.896 67.1805C101.896 67.1805 101.896 67.1805 102.587 67.2904C103.065 66.7786 103.065 66.7786 103.065 66.7786L103.066 66.7797L103.068 66.7816L103.075 66.7877L103.097 66.809C103.116 66.8272 103.143 66.8532 103.177 66.8865C103.244 66.9531 103.34 67.0489 103.454 67.169C103.682 67.4087 103.989 67.7488 104.303 68.1501C104.906 68.9194 105.638 70.0396 105.753 71.1555C105.821 71.8131 105.685 72.5889 105.556 73.1476C105.489 73.4379 105.419 73.6918 105.365 73.8734C105.343 73.9507 105.323 74.0153 105.307 74.0646L105.299 74.0895C105.291 74.1153 105.284 74.1356 105.28 74.1499L105.274 74.1668L105.272 74.1717L105.272 74.1733C105.272 74.1733 105.272 74.1743 104.608 73.95ZM103.604 71.742C103.747 72.002 103.987 72.3057 104.244 72.5931C104.338 72.1289 104.397 71.6517 104.36 71.2987C104.29 70.6093 103.787 69.7612 103.201 69.0134L103.152 68.9513C103.152 68.9804 103.151 69.0097 103.151 69.0392L103.15 69.0764C103.138 70.0537 103.247 71.0905 103.604 71.742Z" fill="black"/>
<path d="M104.608 73.95L104.143 74.4731L104.933 75.175L105.272 74.1743L104.608 73.95Z" fill="black"/>
<path d="M115.389 68.9593L114.897 70.1799L114.247 69.9181L114.102 69.2334L115.389 68.9593Z" fill="black"/>
<path fill-rule="evenodd" clip-rule="evenodd" d="M109.468 74.2989C109.471 74.3636 109.471 74.3636 109.471 74.3636L109.473 74.3635L109.478 74.3633L109.494 74.3625C109.508 74.3619 109.527 74.3609 109.55 74.3595C109.585 74.3574 109.629 74.3546 109.683 74.3506C109.704 74.3491 109.726 74.3473 109.75 74.3454C109.916 74.332 110.148 74.3094 110.408 74.2724C110.906 74.2015 111.595 74.0671 112.125 73.7981C113.024 73.3413 113.72 72.3712 114.16 71.6354C114.39 71.2493 114.573 70.889 114.698 70.6255C114.761 70.4932 114.809 70.3843 114.843 70.3074C114.854 70.2805 114.864 70.2575 114.872 70.2387C114.876 70.2305 114.879 70.2232 114.881 70.2167L114.892 70.1911L114.895 70.1837L114.896 70.1813L114.897 70.1799C114.897 70.1799 114.897 70.1799 114.247 69.9181C114.102 69.2334 114.102 69.2334 114.102 69.2334L114.1 69.2337L114.09 69.236L114.063 69.242C114.04 69.2472 114.007 69.2547 113.965 69.2646C113.883 69.2845 113.765 69.3138 113.621 69.3529C113.335 69.4309 112.94 69.5489 112.509 69.709C111.681 70.0159 110.583 70.5258 109.927 71.3026C109.592 71.6996 109.305 72.2473 109.114 72.6533C109.015 72.8644 108.934 73.0534 108.878 73.1899C108.849 73.2583 108.827 73.314 108.812 73.3532L108.794 73.3994L108.789 73.4124L108.787 73.4162L108.787 73.4174C108.787 73.4174 108.787 73.4182 109.442 73.6642L108.787 73.4174L108.415 74.4073L109.471 74.3636L109.468 74.2989ZM110.997 72.2056C110.864 72.363 110.726 72.5833 110.597 72.8219C110.939 72.7554 111.264 72.6653 111.491 72.5499C111.97 72.3063 112.456 71.723 112.864 71.0715C112.109 71.3637 111.379 71.7531 110.997 72.2056Z" fill="black"/>
<path fill-rule="evenodd" clip-rule="evenodd" d="M98.1353 76.1421L98.0292 76.0817L98.5327 75.1967L99.1787 75.9838L98.6376 76.4279C99.1787 75.9838 99.1787 75.9838 99.1787 75.9838L99.1798 75.9851L99.1816 75.9874L99.1874 75.9945L99.2072 76.0191C99.2238 76.0399 99.2473 76.0697 99.2766 76.1077C99.3351 76.1835 99.4171 76.2923 99.5142 76.4281C99.7079 76.699 99.9647 77.0819 100.216 77.5294C100.699 78.3878 101.247 79.6281 101.129 80.7999C101.061 81.4818 100.751 82.2643 100.495 82.8254C100.362 83.1171 100.234 83.3712 100.138 83.5525C100.09 83.6433 100.05 83.7165 100.022 83.7676C100.008 83.7931 99.9963 83.8132 99.9883 83.8273L99.9789 83.8438L99.9762 83.8486L99.9754 83.85C99.9754 83.85 99.9749 83.8509 99.3682 83.5016L99.9749 83.8509L99.5415 84.6034L98.8981 84.0203L98.9634 83.9481C98.8981 84.0202 98.8981 84.0203 98.8981 84.0203L98.8972 84.0195L98.8958 84.0182L98.8914 84.0142L98.8767 84.0006C98.8642 83.9891 98.8467 83.9727 98.8247 83.9519C98.7806 83.9103 98.7186 83.8506 98.6435 83.7759C98.4937 83.6268 98.2899 83.4154 98.0735 83.1656C97.6592 82.6876 97.1261 81.988 96.9013 81.2794C96.7169 80.6986 96.7233 80.0708 96.8052 79.4962C96.888 78.9157 97.0548 78.3428 97.2334 77.8462C97.4129 77.3473 97.6101 76.9098 97.7619 76.5975C97.8381 76.4408 97.9035 76.3144 97.9505 76.226C97.963 76.2024 97.9742 76.1815 97.984 76.1635C97.9926 76.1477 98.0001 76.134 98.0063 76.1226L98.0222 76.094L98.0269 76.0858L98.0292 76.0817C98.0292 76.0817 98.0291 76.0818 98.1353 76.1421ZM98.2357 80.8559C98.3684 81.2741 98.7352 81.7915 99.1315 82.2488C99.1508 82.2711 99.1701 82.2931 99.1892 82.3148L99.2214 82.2448C99.4699 81.6995 99.6925 81.0961 99.7364 80.6597C99.808 79.9481 99.4584 79.0374 98.9962 78.2157C98.9146 78.0707 98.8321 77.9329 98.7518 77.8046C98.6845 77.9652 98.6161 78.1384 98.5508 78.3201C98.3918 78.7619 98.2562 79.2381 98.1912 79.6938C98.1254 80.1554 98.1388 80.5506 98.2357 80.8559Z" fill="black"/>
<path fill-rule="evenodd" clip-rule="evenodd" d="M106.461 80.0852C107.289 79.4944 108.479 79.2717 109.357 79.1786C109.814 79.13 110.226 79.1132 110.523 79.1084C110.672 79.106 110.793 79.1066 110.878 79.1079C110.921 79.1085 110.954 79.1093 110.978 79.11L111.006 79.1108L111.014 79.1111L111.016 79.1112L111.018 79.1113C111.018 79.1113 111.018 79.1113 110.99 79.8107C111.554 80.2248 111.554 80.225 111.554 80.225L111.552 80.2281L111.547 80.2346L111.531 80.2567C111.517 80.2754 111.497 80.3018 111.471 80.335C111.419 80.4014 111.345 80.4949 111.252 80.6075C111.066 80.832 110.8 81.1361 110.481 81.4532C109.873 82.0575 108.959 82.8258 107.975 83.0462C107.395 83.176 106.694 83.1361 106.194 83.0817C105.933 83.0532 105.703 83.018 105.538 82.9899C105.485 82.9809 105.439 82.9726 105.401 82.9654C105.378 82.9613 105.359 82.9576 105.342 82.9543L105.321 82.9504L105.286 82.9434L105.271 82.9402L105.266 82.9392L105.264 82.9389C105.264 82.9389 105.263 82.9387 105.408 82.2538C104.834 81.8535 104.834 81.8534 104.834 81.8534L104.835 81.8518L104.838 81.8484L104.846 81.8371L104.874 81.7968C104.899 81.7626 104.934 81.7141 104.978 81.6547C105.067 81.5363 105.192 81.3732 105.34 81.1932C105.626 80.847 106.039 80.387 106.461 80.0852ZM107.669 81.6801C108.194 81.5625 108.808 81.1172 109.364 80.5866C108.561 80.6833 107.757 80.8803 107.275 81.2244C107.108 81.3441 106.919 81.5236 106.735 81.7227C107.084 81.743 107.42 81.7358 107.669 81.6801Z" fill="black"/>
<path d="M105.408 82.2538L104.834 81.8534L104.23 82.7202L105.264 82.9389L105.408 82.2538Z" fill="black"/>
<path d="M110.99 79.8107L111.554 80.225L112.333 79.1637L111.018 79.1113L110.99 79.8107Z" fill="black"/>
<path fill-rule="evenodd" clip-rule="evenodd" d="M93.6081 83.3201L93.5818 83.3339C93.6082 83.3202 93.6081 83.3201 93.6081 83.3201L93.6089 83.3216L93.6148 83.333L93.6305 83.364L93.6456 83.3941C93.6569 83.4168 93.6706 83.4444 93.6863 83.4767C93.7334 83.5734 93.7992 83.7121 93.8761 83.8842C94.0295 84.2275 94.2293 84.7082 94.4137 85.257C94.769 86.3145 95.1217 87.7777 94.8266 88.9945C94.6526 89.7121 94.2176 90.4848 93.8667 91.0364C93.6852 91.3218 93.5137 91.567 93.3874 91.7411C93.3241 91.8284 93.2719 91.8983 93.2349 91.947C93.2164 91.9714 93.2017 91.9905 93.1914 92.0039L93.1792 92.0196L93.1756 92.0242L93.1745 92.0256C93.1745 92.0256 93.1738 92.0264 92.6237 91.5936C92.0106 91.9316 92.0106 91.9315 92.0106 91.9315L92.0095 91.9295L92.0071 91.9251L91.9987 91.9098L91.9689 91.8542C91.9436 91.8067 91.9077 91.7385 91.8644 91.6536C91.7779 91.4841 91.6607 91.2465 91.5374 90.9726C91.298 90.4408 91.008 89.7125 90.9033 89.0722C90.6988 87.8207 91.1075 86.3428 91.5039 85.2652C91.7086 84.7086 91.924 84.2229 92.0881 83.8763C92.1703 83.7026 92.2401 83.5629 92.2899 83.4657C92.3148 83.417 92.3347 83.3789 92.3488 83.3524L92.3652 83.3214L92.3699 83.3127L92.3713 83.3101L92.372 83.3089C92.372 83.3089 92.3721 83.3086 92.9871 83.643L92.372 83.3089L93.0009 82.1524L93.6081 83.3201ZM92.8178 85.7485C92.4312 86.7995 92.1434 87.9798 92.285 88.8464C92.3497 89.2425 92.5317 89.7464 92.7319 90.2114C93.0528 89.6983 93.3549 89.1226 93.466 88.6646C93.6601 87.8644 93.4332 86.7344 93.0866 85.7029C93.0472 85.5856 93.0069 85.4715 92.9665 85.3615C92.9169 85.4855 92.867 85.6149 92.8178 85.7485Z" fill="black"/>
<path d="M92.6237 91.5936L92.0106 91.9315L92.5207 92.8568L93.1738 92.0264L92.6237 91.5936Z" fill="black"/>
<path fill-rule="evenodd" clip-rule="evenodd" d="M99.6838 89.7399C100.008 89.4362 100.473 89.0368 100.927 88.7938C101.816 88.3182 103.015 88.2513 103.888 88.2715C104.344 88.282 104.75 88.3179 105.042 88.3511C105.189 88.3677 105.308 88.3838 105.391 88.3958L105.443 88.4035L105.489 88.4106L105.516 88.415L105.524 88.4163L105.527 88.4167L105.528 88.4169C105.528 88.4169 105.528 88.417 105.411 89.107C105.917 89.5902 105.917 89.5904 105.917 89.5904L105.916 89.5914L105.914 89.5932L105.909 89.5989L105.89 89.6186C105.874 89.6352 105.85 89.6586 105.821 89.6879C105.762 89.7465 105.677 89.829 105.571 89.9277C105.36 90.1245 105.06 90.3893 104.706 90.6602C104.032 91.1761 103.036 91.8151 102.04 91.9064C101.453 91.9602 100.769 91.8316 100.285 91.7144C100.032 91.6532 99.8103 91.5893 99.6521 91.5407C99.5727 91.5163 99.5086 91.4956 99.4636 91.4807C99.441 91.4732 99.4232 91.4672 99.4106 91.4629L99.3957 91.4578L99.3912 91.4562L99.3898 91.4557C99.3898 91.4557 99.3888 91.4554 99.6204 90.7948C99.1024 90.3241 99.1025 90.3239 99.1025 90.3239L99.1038 90.3225L99.1066 90.3195L99.1159 90.3093L99.1493 90.2734C99.1622 90.2596 99.1775 90.2433 99.1952 90.2247C99.2167 90.2021 99.2416 90.176 99.2696 90.1471C99.3714 90.0421 99.5151 89.8978 99.6838 89.7399ZM101.007 90.4382C101.341 90.5006 101.665 90.5349 101.912 90.5123C102.435 90.4643 103.086 90.1126 103.694 89.6687C102.901 89.6631 102.098 89.7551 101.587 90.0282C101.412 90.1223 101.209 90.2703 101.007 90.4382Z" fill="black"/>
<path d="M99.6204 90.7948L99.1025 90.3239L98.3919 91.1059L99.3898 91.4557L99.6204 90.7948Z" fill="black"/>
<path d="M105.411 89.107L105.917 89.5904L106.826 88.638L105.528 88.4169L105.411 89.107Z" fill="black"/>
<path d="M86.0752 90.4439L86.9039 89.4213L87.2885 90.68L86.6191 90.8846L86.0752 90.4439Z" fill="black"/>
<path fill-rule="evenodd" clip-rule="evenodd" d="M84.815 98.6363C85.2772 99.162 85.2774 99.1618 85.2774 99.1618L85.2794 99.1601L85.2837 99.1563L85.2986 99.143C85.3112 99.1317 85.3291 99.1156 85.3517 99.095C85.3969 99.0538 85.4611 98.9946 85.5392 98.9203C85.695 98.772 85.9082 98.5621 86.1387 98.3146C86.5841 97.836 87.1524 97.1554 87.4541 96.4814C87.9657 95.3387 87.8851 93.8356 87.7282 92.7312C87.6467 92.158 87.5378 91.649 87.4494 91.2834C87.405 91.1002 87.3656 90.9519 87.3369 90.8483C87.3226 90.7964 87.3109 90.7557 87.3026 90.7272L87.2927 90.694L87.2899 90.6845L87.2885 90.68C87.2885 90.68 87.2885 90.68 86.6191 90.8846C86.0752 90.4439 86.0752 90.4439 86.0752 90.4439L86.0742 90.4452L86.0723 90.4475L86.0661 90.4552L86.0443 90.4826C86.0257 90.5061 85.9992 90.54 85.9658 90.5833C85.8992 90.6699 85.8051 90.7946 85.6927 90.9504C85.4682 91.2613 85.1681 91.6997 84.8655 92.2098C84.2796 93.1973 83.6088 94.5761 83.5822 95.8439C83.5686 96.4926 83.7213 97.2615 83.8599 97.8279C83.9313 98.1197 84.0033 98.3747 84.0575 98.5571C84.0846 98.6484 84.1075 98.722 84.1238 98.7734L84.143 98.8335L84.1484 98.85L84.1499 98.8548L84.1504 98.8562C84.1504 98.8562 84.1507 98.8571 84.815 98.6363ZM86.0695 92.9241C85.4981 93.8872 85.0003 94.9954 84.9819 95.8733C84.9735 96.2745 85.0607 96.8032 85.1729 97.2968C85.5818 96.8507 85.9837 96.3396 86.1763 95.9094C86.5127 95.1579 86.4952 94.0055 86.3421 92.9281C86.3247 92.8056 86.3059 92.6861 86.2862 92.5706C86.2148 92.6835 86.1422 92.8016 86.0695 92.9241Z" fill="black"/>
<path d="M84.815 98.6363L85.2774 99.1618L84.4839 99.8596L84.1504 98.8562L84.815 98.6363Z" fill="black"/>
<path d="M77.6725 93.8332L78.6395 92.9403L78.8393 94.2411L78.1474 94.3474L77.6725 93.8332Z" fill="black"/>
<path fill-rule="evenodd" clip-rule="evenodd" d="M73.8708 103.643C73.8708 103.643 73.8708 103.643 74.5599 103.52L73.8708 103.643L74.0565 104.683L74.9418 104.106L74.5599 103.52C74.9418 104.106 74.9418 104.106 74.9418 104.106L74.9428 104.106L74.9445 104.105L74.9502 104.101L74.9701 104.088C74.9872 104.076 75.0116 104.06 75.0425 104.039C75.1043 103.997 75.1924 103.937 75.3002 103.861C75.5153 103.708 75.811 103.491 76.1339 103.231C76.7623 102.726 77.5608 102.008 78.0346 101.261C78.837 99.9954 79.007 98.1827 79.0111 96.8055C79.0133 96.0957 78.9707 95.4585 78.9278 94.999C78.9063 94.7687 78.8845 94.5819 78.868 94.4515C78.8598 94.3862 78.8528 94.335 78.8478 94.2995L78.8418 94.258L78.8401 94.2464L78.8396 94.243L78.8393 94.2411C78.8393 94.2411 78.8393 94.2411 78.1474 94.3474C77.6725 93.8332 77.6725 93.8332 77.6725 93.8332L77.6712 93.8344L77.6687 93.8367L77.6601 93.8448L77.6292 93.8738C77.6027 93.8988 77.5648 93.935 77.5168 93.9816C77.4208 94.0748 77.2847 94.2095 77.1206 94.3789C76.793 94.7172 76.3509 95.197 75.8936 95.763C75.0027 96.8655 73.961 98.406 73.7106 99.9082C73.5824 100.678 73.6306 101.628 73.6994 102.344C73.7347 102.711 73.7771 103.033 73.8108 103.264C73.8277 103.38 73.8424 103.473 73.8531 103.538C73.8584 103.57 73.8627 103.596 73.8657 103.614L73.8693 103.634L73.8703 103.64L73.8708 103.643ZM75.093 102.21L75.0985 102.266C75.1503 102.225 75.2032 102.183 75.2568 102.14C75.8661 101.651 76.5093 101.052 76.8522 100.511C77.4251 99.6078 77.6071 98.1512 77.6111 96.8013C77.6121 96.4929 77.6038 96.1984 77.5906 95.9285C77.3983 96.1435 77.1919 96.3838 76.9825 96.6429C76.1094 97.7234 75.2779 99.0208 75.0916 100.138C74.9951 100.717 75.0262 101.515 75.093 102.21Z" fill="black"/>
<path fill-rule="evenodd" clip-rule="evenodd" d="M96.0712 95.1433C97.2769 94.7506 98.7998 94.9295 99.9252 95.1571C100.506 95.2747 101.019 95.4136 101.387 95.523C101.481 95.5511 101.566 95.5772 101.64 95.6007C101.711 95.6232 101.773 95.6431 101.823 95.6599C101.875 95.6772 101.916 95.691 101.944 95.7009L101.977 95.7124L101.987 95.7157L101.99 95.7167L101.991 95.7172C101.991 95.7172 101.991 95.7173 101.754 96.376C102.168 96.9406 102.168 96.9408 102.168 96.9408L102.164 96.9434L102.156 96.9492L102.128 96.9694C102.113 96.9804 102.093 96.9943 102.069 97.0109C102.056 97.0203 102.041 97.0306 102.025 97.0417C101.937 97.103 101.81 97.1891 101.651 97.2913C101.335 97.4953 100.891 97.7659 100.376 98.0317C99.3854 98.5439 97.9929 99.1154 96.7454 99.009C96.0096 98.9463 95.1797 98.634 94.5811 98.3712C94.2714 98.2353 94.003 98.1031 93.8117 98.0049C93.7158 97.9556 93.6387 97.9146 93.5849 97.8855C93.558 97.8709 93.5369 97.8593 93.5221 97.8511L93.5047 97.8414L93.4996 97.8386L93.4981 97.8378C93.4981 97.8378 93.4972 97.8373 93.5597 97.7265L93.4971 97.8372L92.577 97.3181L93.4137 96.6732L93.8411 97.2276C93.4137 96.6732 93.4137 96.6732 93.4137 96.6732L93.4157 96.6717L93.4196 96.6686L93.4335 96.6581L93.4838 96.6201C93.527 96.5878 93.5889 96.542 93.6662 96.4863C93.8205 96.375 94.0376 96.223 94.2895 96.0594C94.7786 95.7419 95.4542 95.3443 96.0712 95.1433ZM96.8643 97.6141C97.6847 97.684 98.7669 97.2877 99.7336 96.788C99.8436 96.7312 99.9502 96.674 100.053 96.6174C99.9227 96.5872 99.7872 96.5576 99.6476 96.5293C98.55 96.3073 97.3397 96.2026 96.5047 96.4745C96.1231 96.5988 95.6528 96.8554 95.2237 97.124C95.7797 97.363 96.3947 97.574 96.8643 97.6141Z" fill="black"/>
<path d="M101.754 96.376L102.168 96.9408L103.23 96.1626L101.991 95.7172L101.754 96.376Z" fill="black"/>
<path fill-rule="evenodd" clip-rule="evenodd" d="M87.2442 101.853C88.3261 101.572 89.6258 101.773 90.5736 101.999C91.0635 102.115 91.4922 102.247 91.7987 102.35C91.8854 102.379 91.9627 102.405 92.0291 102.429C92.0802 102.447 92.1249 102.463 92.1626 102.477C92.1831 102.485 92.2016 102.492 92.2179 102.498C92.2358 102.505 92.2511 102.511 92.2636 102.515L92.2915 102.526L92.302 102.53L92.3032 102.531C92.3032 102.531 92.3033 102.531 92.2495 102.666L92.3032 102.531L93.6096 103.051L92.407 103.78L92.0443 103.181C92.407 103.78 92.407 103.78 92.407 103.78L92.4057 103.781L92.396 103.787L92.3697 103.802L92.338 103.821C92.32 103.831 92.2987 103.844 92.2742 103.858C92.1924 103.905 92.0751 103.97 91.9293 104.048C91.6385 104.203 91.2309 104.409 90.7639 104.607C89.8683 104.989 88.6112 105.411 87.5348 105.279C86.895 105.201 86.2012 104.911 85.7099 104.675C85.4549 104.552 85.2353 104.434 85.0791 104.346C85.0389 104.323 85.0028 104.303 84.9711 104.284C84.9411 104.267 84.9152 104.252 84.8938 104.239C84.8717 104.226 84.8543 104.216 84.8421 104.208L84.8275 104.2L84.8232 104.197L84.8218 104.196C84.8218 104.196 84.821 104.196 85.1881 103.6C84.8122 103.009 84.8123 103.009 84.8123 103.009L84.8141 103.008L84.8308 102.997L84.8777 102.968C84.9179 102.943 84.9755 102.908 85.0472 102.865C85.1904 102.78 85.3913 102.663 85.6233 102.539C86.073 102.297 86.6925 101.996 87.2442 101.853ZM87.7054 103.889C88.3692 103.971 89.3007 103.704 90.165 103.341C89.2758 103.136 88.3028 103.024 87.5958 103.208C87.325 103.278 86.9954 103.416 86.6717 103.574C87.034 103.729 87.4039 103.852 87.7054 103.889Z" fill="black"/>
<path d="M85.1881 103.6L84.8123 103.009L83.8694 103.609L84.821 104.196L85.1881 103.6Z" fill="black"/>
<path fill-rule="evenodd" clip-rule="evenodd" d="M78.6497 106.207C79.7569 106.054 81.0244 106.405 81.9396 106.739C82.4125 106.912 82.8231 107.093 83.1155 107.23C83.1841 107.262 83.2463 107.292 83.3016 107.319C83.3645 107.35 83.4183 107.377 83.4621 107.399C83.5032 107.42 83.5355 107.437 83.558 107.449L83.5845 107.463L83.5921 107.467L83.5944 107.468L83.5956 107.469C83.5956 107.469 83.5957 107.469 83.5451 107.563L83.5956 107.469L84.8326 108.138L83.5536 108.722L83.2629 108.085C83.5536 108.722 83.5536 108.722 83.5536 108.722L83.5522 108.722L83.5497 108.723L83.5418 108.727L83.5139 108.739C83.4901 108.75 83.456 108.765 83.4126 108.783C83.363 108.805 83.3011 108.831 83.2283 108.86C83.174 108.882 83.1137 108.907 83.0479 108.932C82.7411 109.053 82.3123 109.209 81.8254 109.353C80.8916 109.627 79.5939 109.901 78.5402 109.644C77.9138 109.492 77.2583 109.124 76.7979 108.832C76.5589 108.68 76.3545 108.537 76.2095 108.432C76.1368 108.379 76.0786 108.336 76.0378 108.305C76.0174 108.289 76.0014 108.277 75.9901 108.268L75.9767 108.258L75.9714 108.254C75.9714 108.254 75.9706 108.253 76.4045 107.704L75.9706 108.253L75.0936 107.56L76.0997 107.073L76.119 107.113C76.0998 107.073 76.0997 107.073 76.0997 107.073L76.1017 107.073L76.1057 107.071L76.1195 107.064L76.1695 107.04C76.1967 107.028 76.2312 107.012 76.2723 106.993C76.296 106.982 76.322 106.97 76.3499 106.958C76.502 106.89 76.7151 106.798 76.96 106.701C77.4347 106.513 78.0851 106.286 78.6497 106.207ZM78.871 108.284C79.5209 108.442 80.4771 108.285 81.3778 108.025C80.5184 107.718 79.5649 107.494 78.8414 107.594C78.5643 107.633 78.2208 107.732 77.881 107.851C78.2229 108.046 78.5759 108.212 78.871 108.284Z" fill="black"/>
</svg>
