<?xml version="1.0" encoding="UTF-8" standalone="no"?><svg width="149" height="98" viewBox="0 0 149 98" fill="none" xmlns="http://www.w3.org/2000/svg">
<path fill-rule="evenodd" clip-rule="evenodd" d="M74.81 63.8765C74.7138 63.7702 74.5771 63.7096 74.4337 63.7096C74.2903 63.7096 74.1536 63.7702 74.0574 63.8765L73.0643 64.9724L71.865 64.1069C71.7487 64.023 71.6024 63.9921 71.4622 64.0219C71.322 64.0517 71.2008 64.1394 71.1288 64.2634L70.3852 65.5419L69.0322 64.9446C68.901 64.8867 68.7515 64.8869 68.6205 64.9452C68.4896 65.0036 68.3894 65.1145 68.3446 65.2507L67.8831 66.6559L66.4355 66.353C66.2952 66.3236 66.149 66.3549 66.033 66.4392C65.917 66.5235 65.842 66.6528 65.8266 66.7954L65.6673 68.2658L64.1883 68.2704C64.045 68.2709 63.9085 68.3319 63.8125 68.4385C63.7166 68.545 63.6702 68.6871 63.6847 68.8298L63.8347 70.3011L62.389 70.6132C62.2488 70.6435 62.128 70.7315 62.0563 70.8557C61.9846 70.9799 61.9688 71.1285 62.0126 71.265L62.4652 72.6731L61.116 73.2789C60.9852 73.3376 60.8853 73.4489 60.841 73.5853C60.7967 73.7216 60.8121 73.8703 60.8834 73.9947L61.6189 75.2779L60.4251 76.151C60.3094 76.2356 60.2348 76.3653 60.2198 76.5078C60.2048 76.6504 60.2508 76.7927 60.3464 76.8996L61.3326 78.0018L60.3464 79.104C60.2508 79.2109 60.2048 79.3531 60.2198 79.4957C60.2348 79.6383 60.3094 79.7679 60.4251 79.8525L61.6189 80.7257L60.8834 82.0088C60.8121 82.1332 60.7967 82.2819 60.841 82.4183C60.8853 82.5546 60.9852 82.6659 61.116 82.7246L62.4652 83.3305L62.0126 84.7385C61.9688 84.875 61.9846 85.0237 62.0563 85.1479C62.128 85.272 62.2488 85.3601 62.389 85.3904L63.8347 85.7024L63.6847 87.1738C63.6702 87.3164 63.7166 87.4586 63.8125 87.5651C63.9085 87.6716 64.045 87.7327 64.1883 87.7331L65.6673 87.7378L65.8266 89.2082C65.842 89.3507 65.917 89.4801 66.033 89.5644C66.149 89.6486 66.2952 89.68 66.4355 89.6506L67.8831 89.3477L68.3446 90.7528C68.3894 90.889 68.4896 91 68.6205 91.0583C68.7515 91.1166 68.901 91.1169 69.0322 91.059L70.3852 90.4617L71.1288 91.7402C71.2008 91.8641 71.322 91.9518 71.4622 91.9816C71.6024 92.0114 71.7487 91.9806 71.865 91.8967L73.0643 91.0311L74.0574 92.1271C74.1536 92.2333 74.2903 92.2939 74.4337 92.2939C74.5771 92.2939 74.7138 92.2333 74.81 92.1271L75.8031 91.0311L77.0024 91.8967C77.1187 91.9806 77.265 92.0114 77.4052 91.9816C77.5454 91.9518 77.6665 91.8641 77.7386 91.7402L78.4822 90.4617L79.8352 91.059C79.9663 91.1169 80.1159 91.1166 80.2468 91.0583C80.3778 91 80.478 90.889 80.5228 90.7528L80.9842 89.3477L82.4319 89.6506C82.5722 89.68 82.7184 89.6486 82.8344 89.5644C82.9504 89.4801 83.0254 89.3507 83.0408 89.2082L83.2 87.7378L84.679 87.7331C84.8224 87.7327 84.9589 87.6716 85.0548 87.5651C85.1508 87.4586 85.1972 87.3164 85.1827 87.1738L85.0327 85.7024L86.4784 85.3904C86.6186 85.3601 86.7394 85.272 86.8111 85.1479C86.8827 85.0237 86.8986 84.875 86.8547 84.7385L86.4021 83.3305L87.7514 82.7246C87.8822 82.6659 87.982 82.5546 88.0263 82.4183C88.0706 82.2819 88.0553 82.1332 87.984 82.0088L87.2485 80.7257L88.4423 79.8525C88.558 79.7679 88.6326 79.6383 88.6476 79.4957C88.6625 79.3531 88.6166 79.2109 88.521 79.104L87.5348 78.0018L88.521 76.8996C88.6166 76.7927 88.6625 76.6504 88.6476 76.5078C88.6326 76.3653 88.558 76.2356 88.4423 76.151L87.2485 75.2779L87.984 73.9947C88.0553 73.8703 88.0706 73.7216 88.0263 73.5853C87.982 73.4489 87.8822 73.3376 87.7514 73.2789L86.4021 72.6731L86.8547 71.265C86.8986 71.1285 86.8827 70.9799 86.8111 70.8557C86.7394 70.7315 86.6186 70.6435 86.4784 70.6132L85.0327 70.3011L85.1827 68.8298C85.1972 68.6871 85.1508 68.545 85.0548 68.4385C84.9589 68.3319 84.8224 68.2709 84.679 68.2704L83.2 68.2658L83.0408 66.7954C83.0254 66.6528 82.9504 66.5235 82.8344 66.4392C82.7184 66.3549 82.5722 66.3236 82.4319 66.353L80.9842 66.6559L80.5228 65.2507C80.478 65.1145 80.3778 65.0036 80.2468 64.9452C80.1159 64.8869 79.9663 64.8867 79.8352 64.9446L78.4822 65.5419L77.7386 64.2634C77.6665 64.1394 77.5454 64.0517 77.4052 64.0219C77.265 63.9921 77.1187 64.023 77.0024 64.1069L75.8031 64.9724L74.81 63.8765ZM73.418 66.0723C73.3896 66.1037 73.4519 66.0496 73.418 66.0723V78.9943L64.761 86.6311L64.752 86.7192L64.8912 85.3534C64.9174 85.096 64.746 84.8601 64.4931 84.8055L63.1511 84.5158L63.5712 83.2087C63.6504 82.9624 63.5318 82.696 63.2958 82.59L62.0433 82.0276L62.726 80.8365C62.8547 80.6121 62.794 80.3268 62.5852 80.1741L61.4771 79.3636L62.3925 78.3404C62.565 78.1476 62.565 77.856 62.3925 77.6632L61.4771 76.64L62.5852 75.8295C62.794 75.6768 62.8547 75.3915 62.726 75.1671L62.0433 73.9759L63.2958 73.4135C63.5318 73.3076 63.6504 73.0411 63.5712 72.7948L63.1511 71.4878L64.4931 71.1981C64.746 71.1435 64.9174 70.9076 64.8912 70.6502L64.752 69.2843L66.1249 69.28C66.3836 69.2792 66.6003 69.084 66.6282 68.8269L66.776 67.4619L68.1198 67.7431C68.3731 67.7961 68.6256 67.6503 68.7063 67.4045L69.1347 66.1001L70.3907 66.6546C70.6274 66.759 70.9047 66.6689 71.0348 66.4453L71.725 65.2585L72.8383 66.0619C73.048 66.2133 73.2443 66.264 73.418 66.0723ZM75.4494 66.0723V78.9943L84.1064 86.6311L83.9762 85.3534C83.95 85.096 84.1214 84.8601 84.3743 84.8055L85.7163 84.5158L85.2961 83.2087C85.217 82.9624 85.3356 82.696 85.5716 82.59L86.8241 82.0276L86.1414 80.8365C86.0127 80.6121 86.0734 80.3268 86.2822 80.1741L87.3903 79.3636L86.4749 78.3404C86.3024 78.1476 86.3024 77.856 86.4749 77.6632L87.3903 76.64L86.2822 75.8295C86.0734 75.6768 86.0127 75.3915 86.1414 75.1671L86.8241 73.9759L85.5716 73.4135C85.3356 73.3076 85.217 73.0411 85.2961 72.7948L85.7163 71.4878L84.3743 71.1981C84.1214 71.1435 83.95 70.9076 83.9762 70.6502L84.1154 69.2843L82.7425 69.28C82.4838 69.2792 82.267 69.084 82.2392 68.8269L82.0914 67.4619L80.7475 67.7431C80.4943 67.7961 80.2418 67.6503 80.161 67.4045L79.7327 66.1001L78.4767 66.6546C78.24 66.759 77.9626 66.6689 77.8326 66.4453L77.1424 65.2585L76.0291 66.0619C75.8537 66.1885 75.6221 66.188 75.4494 66.0723ZM82.1882 87.6477L75.4494 81.7031V89.9313C75.6221 89.8156 75.8537 89.815 76.0291 89.9416L77.1424 90.7451L77.8326 89.5583C77.9626 89.3346 78.24 89.2445 78.4767 89.349L79.7327 89.9035L80.161 88.5991C80.2418 88.3533 80.4943 88.2075 80.7475 88.2605L82.0914 88.5417L82.1882 87.6477ZM73.5119 90.0124C73.4834 89.981 73.4519 89.9539 73.418 89.9313V81.7031L66.6793 87.6477L66.776 88.5417L68.1198 88.2605C68.3731 88.2075 68.6256 88.3533 68.7064 88.5991L69.1347 89.9035L70.3907 89.349C70.6274 89.2445 70.9047 89.3346 71.0348 89.5583L71.725 90.7451L72.8383 89.9416C73.048 89.7902 73.3382 89.8207 73.5119 90.0124Z" fill="black"/>
<path fill-rule="evenodd" clip-rule="evenodd" d="M87.1048 65.3307C85.3866 63.6125 83.4063 62.3162 81.2927 61.4417C79.19 60.5698 76.8853 60.0868 74.4683 60.0822H74.399C69.8246 60.091 65.2528 61.8405 61.7626 65.3307C60.0444 67.0489 58.7481 69.0292 57.8736 71.1429C57.0018 73.2455 56.5187 75.5502 56.5141 77.9671V78.0364C56.5229 82.6109 58.2724 87.1826 61.7626 90.6729C63.4807 92.3909 65.4609 93.6872 67.5744 94.5617C69.6872 95.4378 72.004 95.9214 74.4337 95.9214C76.8634 95.9214 79.1802 95.4378 81.293 94.5617C83.4066 93.6872 85.3867 92.3909 87.1048 90.6729C88.8228 88.9548 90.1191 86.9746 90.9936 84.8611C91.8697 82.7483 92.3533 80.4315 92.3533 78.0018C92.3533 75.5721 91.8697 73.2553 90.9936 71.1425C90.1191 69.0289 88.8229 67.0488 87.1048 65.3307ZM62.4946 66.0351L62.4808 66.0489L62.467 66.0627C60.9164 67.6169 59.6665 69.4715 58.8123 71.5315C57.9608 73.5897 57.5332 75.7821 57.5298 77.975L62.4808 66.0489L57.5298 78.0018C57.5298 80.2039 57.9574 82.406 58.8127 84.4729C59.6624 86.5219 60.9036 88.3675 62.4428 89.9165L62.4808 89.9547L62.519 89.9927C64.0679 91.5318 65.9133 92.7729 67.9621 93.6226C74.0685 96.1496 81.3556 94.944 86.3354 90.0056L86.3866 89.9547L86.4375 89.9035C92.9753 83.3108 92.971 72.6744 86.4246 66.087L86.3866 66.0489L86.3485 66.0109C83.0526 62.7355 78.7431 61.0979 74.4337 61.0979C72.2319 61.0979 70.03 61.5254 67.9634 62.3804C65.9034 63.2346 64.0489 64.4844 62.4946 66.0351Z" fill="black"/>
<path fill-rule="evenodd" clip-rule="evenodd" d="M74.4337 58.6312C63.7356 58.6312 55.0631 67.3037 55.0631 78.0018C55.0631 88.6999 63.7356 97.3724 74.4337 97.3724C85.1318 97.3724 93.8043 88.6999 93.8043 78.0018C93.8043 67.3037 85.1318 58.6312 74.4337 58.6312ZM56.0788 78.0018C56.0788 67.8646 64.2966 59.6469 74.4337 59.6469C84.5708 59.6469 92.7886 67.8646 92.7886 78.0018C92.7886 88.1389 84.5708 96.3567 74.4337 96.3567C64.2966 96.3567 56.0788 88.1389 56.0788 78.0018Z" fill="black"/>
<path d="M43.2376 53.7989C43.5852 63.7083 45.6752 67.9995 53.0317 73.3871L53.7572 77.3773C50.3969 77.1135 48.2499 76.2245 43.9631 73.3871L38.1591 62.8675C39.3166 59.257 38.0273 56.7711 32.718 51.6224L16.3944 10.995V3.37733C18.3038 0.754555 19.1123 0.0900324 20.0219 0.475366L27.6395 22.6028C27.1348 37.0078 30.6182 43.8179 43.2376 53.7989Z" fill="black"/>
<path d="M13.1297 8.45576L25.4631 37.8381L11.316 19.3381L13.1297 8.45576Z" fill="black"/>
<path d="M7.32581 17.8871L28.365 44.0048L8.0513 28.044L7.32581 17.8871Z" fill="black"/>
<path d="M1.88464 25.8675L29.816 47.995L6.60032 35.2989L1.88464 25.8675Z" fill="black"/>
<path d="M5.87483 37.1126L31.6297 51.9852L9.13954 45.093L2.61013 38.5636L5.87483 37.1126Z" fill="black"/>
<path d="M4.06111 45.093L36.3454 57.4263L4.7866 51.2597L0.433655 46.544L4.06111 45.093Z" fill="black"/>
<path d="M2.61013 54.1616L37.0709 61.7793L7.32581 61.0538L2.61013 54.1616Z" fill="black"/>
<path d="M6.23758 65.044L37.0709 64.3185L13.4925 69.7597L6.23758 65.044Z" fill="black"/>
<path d="M14.218 74.4754L38.8846 66.8577L21.4729 76.6518L14.218 74.4754Z" fill="black"/>
<path d="M25.4631 78.4656L40.3356 69.7597L32.3552 78.4656H25.4631Z" fill="black"/>
<path d="M29.0905 88.2597L41.4239 74.4754V78.4656L29.0905 88.2597Z" fill="black"/>
<path d="M43.6003 86.0832L35.2572 88.6224L42.8748 82.093L45.0513 77.7401L45.7768 81.9116L43.6003 86.0832Z" fill="black"/>
<path d="M45.0513 87.5342L49.4042 78.8283V86.0832L46.865 90.4361L45.0513 87.5342Z" fill="black"/>
<path d="M51.9435 86.0832L53.3944 79.9165L54.1199 85.7205L53.3944 89.7107L49.4042 90.7989L51.9435 86.0832Z" fill="black"/>
<path d="M105.63 53.7992C105.282 63.7086 103.192 67.9999 95.8356 73.3876L95.1101 77.3778C98.4705 77.114 100.617 76.2249 104.904 73.3876L110.708 62.8679C109.551 59.2574 110.84 56.7714 116.149 51.6227L132.473 10.995V3.37734C130.564 0.754557 129.755 0.0900307 128.845 0.475367L121.228 22.6029C121.732 37.008 118.249 43.8181 105.63 53.7992Z" fill="black"/>
<path d="M135.738 8.4558L123.404 37.8383L137.551 19.3382L135.738 8.4558Z" fill="black"/>
<path d="M141.542 17.8872L120.502 44.005L140.816 28.0442L141.542 17.8872Z" fill="black"/>
<path d="M146.983 25.8677L119.051 47.9953L142.267 35.2991L146.983 25.8677Z" fill="black"/>
<path d="M142.992 37.1128L117.238 51.9855L139.728 45.0933L146.257 38.5638L142.992 37.1128Z" fill="black"/>
<path d="M144.806 45.0933L112.522 57.4267L144.081 51.26L148.434 46.5443L144.806 45.0933Z" fill="black"/>
<path d="M146.257 54.162L111.796 61.7796L141.542 61.0542L146.257 54.162Z" fill="black"/>
<path d="M142.63 65.0444L111.796 64.3189L135.375 69.7601L142.63 65.0444Z" fill="black"/>
<path d="M134.649 74.4758L109.983 66.8581L127.394 76.6523L134.649 74.4758Z" fill="black"/>
<path d="M123.404 78.466L108.532 69.7601L116.512 78.466H123.404Z" fill="black"/>
<path d="M119.777 88.2602L107.443 74.4758V78.466L119.777 88.2602Z" fill="black"/>
<path d="M105.267 86.0837L113.61 88.6229L105.992 82.0935L103.816 77.7405L103.091 81.9121L105.267 86.0837Z" fill="black"/>
<path d="M103.816 87.5347L99.4631 78.8288V86.0837L102.002 90.4367L103.816 87.5347Z" fill="black"/>
<path d="M96.9239 86.0837L95.4729 79.917L94.7474 85.721L95.4729 89.7112L99.4631 90.7994L96.9239 86.0837Z" fill="black"/>
</svg>
