<?xml version="1.0" encoding="UTF-8" standalone="no"?><svg width="85" height="86" viewBox="0 0 85 86" fill="none" xmlns="http://www.w3.org/2000/svg">
<path d="M58.1672 81.8151L52.9227 68.8345M26.7002 3.93163L31.9447 16.9122M3.49195 58.6069L16.4725 53.3624M81.3754 27.1399L68.3948 32.3844M3.77246 26.4627L16.6595 31.9329M81.0949 59.2841L68.2078 53.8138M58.8443 4.21212L53.3741 17.0992M26.0229 81.5345L31.4932 68.6475M42.4336 84.8734C42.4336 84.8734 36.4336 59.4419 36.4336 42.8734C36.4336 26.3048 42.4336 0.873352 42.4336 0.873352C42.4336 0.873352 48.4337 26.3048 48.4337 42.8734C48.4337 59.4419 42.4336 84.8734 42.4336 84.8734ZM0.433655 42.8734C0.433655 42.8734 25.8651 36.8734 42.4336 36.8734C59.0022 36.8734 84.4337 42.8734 84.4337 42.8734C84.4337 42.8734 59.0022 48.8734 42.4336 48.8734C25.8651 48.8734 0.433655 42.8734 0.433655 42.8734ZM12.7351 13.1749C12.7351 13.1749 34.9605 26.915 46.6763 38.6307C58.392 50.3464 72.1321 72.5718 72.1321 72.5718C72.1321 72.5718 49.9067 58.8317 38.191 47.116C26.4753 35.4003 12.7351 13.1749 12.7351 13.1749ZM72.1321 13.1749C72.1321 13.1749 58.392 35.4003 46.6763 47.116C34.9605 58.8317 12.7351 72.5718 12.7351 72.5718C12.7351 72.5718 26.4753 50.3464 38.191 38.6307C49.9067 26.915 72.1321 13.1749 72.1321 13.1749Z" stroke="black" stroke-width="1.4" stroke-linecap="round"/>
</svg>
