<?xml version="1.0" encoding="UTF-8" standalone="no"?><svg width="420" height="420" viewBox="0 0 420 420" fill="none" xmlns="http://www.w3.org/2000/svg">
<path fill-rule="evenodd" clip-rule="evenodd" d="M208.938 0.00263023C209.292 0.00087738 209.646 0 210 0C210.354 0 210.708 0.00087738 211.062 0.00263119L210.963 20.0024C210.642 20.0008 210.321 20 210 20C209.679 20 209.358 20.0008 209.037 20.0024L208.938 0.00263023ZM202.593 0.128311C203.295 0.103935 203.999 0.0830145 204.703 0.0655632L205.198 20.0594C204.56 20.0752 203.923 20.0942 203.286 20.1163L202.593 0.128311ZM215.297 0.065567C216.001 0.0830183 216.705 0.10394 217.407 0.128316L216.714 20.1163C216.077 20.0942 215.44 20.0752 214.802 20.0594L215.297 0.065567ZM196.262 0.442543C196.967 0.396999 197.672 0.354936 198.379 0.316368L199.469 20.2866C198.829 20.3216 198.19 20.3597 197.552 20.4009L196.262 0.442543ZM221.621 0.316377C222.328 0.354944 223.033 0.397008 223.738 0.442552L222.448 20.4009C221.81 20.3597 221.171 20.3216 220.531 20.2866L221.621 0.316377ZM189.944 0.945941C190.644 0.879667 191.344 0.816825 192.045 0.757428L193.733 20.686C193.099 20.7398 192.465 20.7967 191.832 20.8567L189.944 0.945941ZM227.956 0.757438C228.657 0.816835 229.357 0.879679 230.056 0.945952L228.168 20.8567C227.535 20.7967 226.902 20.7398 226.267 20.686L227.956 0.757438ZM183.633 1.64036C184.333 1.55267 185.034 1.46843 185.735 1.38766L188.023 21.2564C187.388 21.3295 186.754 21.4058 186.12 21.4851L183.633 1.64036ZM234.265 1.38767C234.966 1.46844 235.667 1.55268 236.367 1.64037L233.88 21.4851C233.247 21.4058 232.613 21.3296 231.978 21.2565L234.265 1.38767ZM177.36 2.52291C178.055 2.41441 178.751 2.30931 179.448 2.20765L182.334 21.9984C181.703 22.0903 181.074 22.1854 180.445 22.2836L177.36 2.52291ZM240.552 2.20766C241.249 2.30933 241.945 2.41442 242.64 2.52293L239.555 22.2836C238.927 22.1854 238.297 22.0904 237.666 21.9984L240.552 2.20766ZM171.1 3.59775C171.792 3.46808 172.485 3.34181 173.179 3.21895L176.664 22.9131C176.036 23.0242 175.409 23.1384 174.783 23.2557L171.1 3.59775ZM246.821 3.21897C247.515 3.34182 248.208 3.4681 248.9 3.59777L245.217 23.2557C244.591 23.1384 243.964 23.0242 243.336 22.9131L246.821 3.21897ZM164.883 4.86053C165.572 4.70946 166.264 4.56178 166.956 4.41751L171.036 23.997C170.41 24.1275 169.785 24.261 169.161 24.3976L164.883 4.86053ZM253.044 4.41752C253.736 4.56179 254.428 4.70948 255.118 4.86055L250.839 24.3976C250.216 24.261 249.591 24.1275 248.964 23.997L253.044 4.41752ZM158.708 6.31129C159.39 6.14003 160.074 5.97211 160.758 5.80754L165.432 25.2539C164.813 25.4026 164.195 25.5545 163.578 25.7093L158.708 6.31129ZM259.242 5.80755C259.926 5.97212 260.61 6.14005 261.292 6.31131L256.422 25.7093C255.805 25.5545 255.187 25.4027 254.568 25.2539L259.242 5.80755ZM152.573 7.95133C153.251 7.75886 153.931 7.56971 154.612 7.38391L159.875 26.679C159.259 26.847 158.645 27.018 158.031 27.192L152.573 7.95133ZM265.388 7.38392C266.069 7.56972 266.749 7.75887 267.427 7.95134L261.969 27.192C261.355 27.018 260.741 26.847 260.125 26.679L265.388 7.38392ZM146.499 9.7747C147.171 9.5618 147.844 9.3522 148.519 9.1459L154.367 28.272C153.757 28.4585 153.148 28.6479 152.54 28.8404L146.499 9.7747ZM271.481 9.1459C272.156 9.3522 272.829 9.56181 273.501 9.7747L267.46 28.8404C266.852 28.648 266.243 28.4585 265.633 28.272L271.481 9.1459ZM140.476 11.7846C141.141 11.5515 141.807 11.3216 142.475 11.095L148.902 30.034C148.299 30.2389 147.696 30.4467 147.096 30.6575L140.476 11.7846ZM277.525 11.095C278.193 11.3216 278.859 11.5515 279.524 11.7846L272.904 30.6575C272.304 30.4467 271.701 30.2389 271.098 30.034L277.525 11.095ZM134.52 13.9759C135.179 13.7222 135.839 13.4717 136.5 13.2245L143.501 31.9592C142.903 32.1828 142.306 32.4092 141.711 32.6386L134.52 13.9759ZM283.5 13.2245C284.161 13.4718 284.821 13.7222 285.48 13.976L278.289 32.6386C277.694 32.4092 277.097 32.1828 276.499 31.9592L283.5 13.2245ZM128.638 16.3457C129.286 16.0729 129.937 15.8032 130.589 15.5367L138.156 34.0497C137.567 34.2907 136.979 34.5346 136.392 34.7813L128.638 16.3457ZM289.411 15.5367C290.063 15.8032 290.714 16.0729 291.362 16.3457L283.608 34.7813C283.021 34.5346 282.433 34.2907 281.844 34.0498L289.411 15.5367ZM122.823 18.8964C123.464 18.6035 124.107 18.3137 124.751 18.027L132.878 36.3015C132.295 36.5607 131.714 36.8228 131.134 37.0877L122.823 18.8964ZM295.249 18.027C295.893 18.3137 296.536 18.6035 297.177 18.8964L288.866 37.0877C288.286 36.8228 287.705 36.5608 287.122 36.3015L295.249 18.027ZM117.093 21.6198C117.726 21.3072 118.361 20.9977 118.997 20.6913L127.674 38.7109C127.099 38.988 126.525 39.2679 125.953 39.5506L117.093 21.6198ZM301.003 20.6913C301.639 20.9977 302.274 21.3072 302.907 21.6198L294.047 39.5506C293.475 39.2679 292.901 38.988 292.326 38.7109L301.003 20.6913ZM111.448 24.5162C112.07 24.1853 112.694 23.8573 113.319 23.5324L122.539 41.2804C121.973 41.5743 121.409 41.8709 120.847 42.1703L111.448 24.5162ZM306.681 23.5324C307.306 23.8573 307.93 24.1853 308.552 24.5163L299.153 42.1703C298.591 41.8709 298.027 41.5743 297.461 41.2804L306.681 23.5324ZM105.893 27.5828C106.505 27.2328 107.119 26.8858 107.735 26.5417L117.488 44.0025C116.93 44.3137 116.375 44.6276 115.821 44.9443L105.893 27.5828ZM312.266 26.5417C312.881 26.8858 313.495 27.2328 314.107 27.5828L304.179 44.9443C303.625 44.6276 303.07 44.3137 302.512 44.0025L312.266 26.5417ZM100.436 30.814C101.036 30.4459 101.639 30.0808 102.244 29.7186L112.52 46.8765C111.973 47.2042 111.428 47.5345 110.884 47.8676L100.436 30.814ZM317.756 29.7186C318.361 30.0808 318.964 30.4459 319.564 30.814L309.116 47.8676C308.572 47.5345 308.027 47.2042 307.48 46.8765L317.756 29.7186ZM95.0757 34.2104C95.6651 33.8243 96.2566 33.4411 96.8501 33.0608L107.64 49.9005C107.103 50.2446 106.568 50.5913 106.035 50.9407L95.0757 34.2104ZM323.15 33.0608C323.743 33.4411 324.335 33.8243 324.924 34.2104L313.966 50.9407C313.432 50.5914 312.897 50.2446 312.36 49.9005L323.15 33.0608ZM89.8225 37.7657C90.4003 37.3618 90.9803 36.9607 91.5624 36.5625L102.855 53.0692C102.328 53.4296 101.804 53.7925 101.281 54.1581L89.8225 37.7657ZM328.438 36.5625C329.02 36.9607 329.6 37.3618 330.178 37.7657L318.719 54.1581C318.196 53.7926 317.672 53.4296 317.145 53.0692L328.438 36.5625ZM84.6799 41.4768C85.2448 41.0561 85.8118 40.6382 86.3811 40.223L98.1661 56.382C97.6509 56.7578 97.1376 57.136 96.6264 57.5168L84.6799 41.4768ZM333.619 40.223C334.188 40.6382 334.755 41.0561 335.32 41.4769L323.374 57.5169C322.862 57.1361 322.349 56.7578 321.834 56.382L333.619 40.223ZM79.6496 45.3424C80.2019 44.9046 80.7564 44.4696 81.3131 44.0373L93.579 59.8344C93.0751 60.2257 92.5732 60.6194 92.0733 61.0157L79.6496 45.3424ZM338.687 44.0373C339.244 44.4696 339.798 44.9046 340.35 45.3424L327.927 61.0157C327.427 60.6195 326.925 60.2257 326.421 59.8344L338.687 44.0373ZM74.7394 49.3562C75.2784 48.9019 75.8197 48.4503 76.3633 48.0014L89.0985 63.4226C88.6064 63.829 88.1164 64.2378 87.6285 64.649L74.7394 49.3562ZM343.637 48.0014C344.18 48.4503 344.722 48.9019 345.261 49.3562L332.372 64.649C331.884 64.2378 331.394 63.829 330.902 63.4226L343.637 48.0014ZM69.9517 53.5159C70.4766 53.0458 71.0039 52.5784 71.5335 52.1136L84.7263 67.1452C84.2468 67.566 83.7695 67.9892 83.2943 68.4147L69.9517 53.5159ZM348.467 52.1136C348.996 52.5784 349.523 53.0459 350.048 53.5159L336.706 68.4147C336.231 67.9892 335.753 67.566 335.274 67.1452L348.467 52.1136ZM65.2912 57.8175C65.8018 57.3318 66.3148 56.8486 66.8303 56.3681L80.4685 70.9968C80.0019 71.4319 79.5374 71.8693 79.0751 72.309L65.2912 57.8175ZM353.17 56.3681C353.685 56.8487 354.198 57.3318 354.709 57.8175L340.925 72.309C340.463 71.8693 339.998 71.4319 339.531 70.9968L353.17 56.3681ZM60.762 62.2569C61.2578 61.7561 61.7561 61.2578 62.2569 60.762L76.3281 74.9747C75.8747 75.4236 75.4236 75.8747 74.9747 76.3281L60.762 62.2569ZM357.743 60.762C358.244 61.2578 358.742 61.7561 359.238 62.2569L345.025 76.3281C344.576 75.8747 344.125 75.4236 343.672 74.9747L357.743 60.762ZM56.3681 66.8303C56.8487 66.3148 57.3318 65.8018 57.8175 65.2911L72.309 79.0751C71.8693 79.5373 71.4319 80.0018 70.9968 80.4685L56.3681 66.8303ZM362.182 65.2912C362.668 65.8018 363.151 66.3148 363.632 66.8303L349.003 80.4685C348.568 80.0019 348.131 79.5374 347.691 79.0751L362.182 65.2912ZM52.1136 71.5334C52.5784 71.0038 53.0459 70.4766 53.5159 69.9517L68.4147 83.2943C67.9892 83.7695 67.566 84.2468 67.1452 84.7263L52.1136 71.5334ZM366.484 69.9517C366.954 70.4766 367.422 71.0039 367.886 71.5335L352.855 84.7263C352.434 84.2468 352.011 83.7695 351.585 83.2943L366.484 69.9517ZM48.0014 76.3633C48.4503 75.8197 48.9019 75.2784 49.3562 74.7394L64.649 87.6284C64.2378 88.1164 63.829 88.6064 63.4226 89.0985L48.0014 76.3633ZM370.644 74.7394C371.098 75.2784 371.55 75.8197 371.999 76.3633L356.577 89.0985C356.171 88.6064 355.762 88.1164 355.351 87.6285L370.644 74.7394ZM44.0373 81.3131C44.4696 80.7563 44.9046 80.2018 45.3424 79.6496L61.0157 92.0733C60.6195 92.5731 60.2257 93.0751 59.8344 93.579L44.0373 81.3131ZM374.658 79.6496C375.095 80.2019 375.53 80.7564 375.963 81.3131L360.166 93.579C359.774 93.0751 359.381 92.5732 358.984 92.0733L374.658 79.6496ZM40.223 86.3811C40.6382 85.8118 41.0561 85.2447 41.4769 84.6799L57.5169 96.6264C57.1361 97.1376 56.7578 97.6509 56.382 98.1661L40.223 86.3811ZM378.523 84.6799C378.944 85.2448 379.362 85.8118 379.777 86.3811L363.618 98.1661C363.242 97.6509 362.864 97.1376 362.483 96.6264L378.523 84.6799ZM36.5625 91.5624C36.9607 90.9803 37.3618 90.4003 37.7657 89.8224L54.1581 101.281C53.7926 101.804 53.4296 102.328 53.0692 102.855L36.5625 91.5624ZM382.234 89.8225C382.638 90.4003 383.039 90.9803 383.438 91.5624L366.931 102.855C366.57 102.328 366.207 101.804 365.842 101.281L382.234 89.8225ZM33.0608 96.85C33.4411 96.2565 33.8243 95.6651 34.2104 95.0757L50.9407 106.035C50.5914 106.568 50.2446 107.103 49.9005 107.64L33.0608 96.85ZM385.79 95.0757C386.176 95.6651 386.559 96.2566 386.939 96.8501L370.1 107.64C369.755 107.103 369.409 106.568 369.059 106.035L385.79 95.0757ZM29.7186 102.244C30.0808 101.639 30.4459 101.036 30.814 100.436L47.8676 110.884C47.5345 111.428 47.2042 111.973 46.8765 112.52L29.7186 102.244ZM389.186 100.436C389.554 101.036 389.919 101.639 390.281 102.244L373.124 112.52C372.796 111.973 372.465 111.428 372.132 110.884L389.186 100.436ZM26.5417 107.734C26.8858 107.119 27.2328 106.505 27.5828 105.893L44.9443 115.821C44.6276 116.375 44.3137 116.93 44.0025 117.488L26.5417 107.734ZM392.417 105.893C392.767 106.505 393.114 107.119 393.458 107.735L375.997 117.488C375.686 116.93 375.372 116.375 375.056 115.821L392.417 105.893ZM23.5324 113.319C23.8573 112.694 24.1853 112.07 24.5163 111.448L42.1703 120.847C41.8709 121.409 41.5743 121.973 41.2804 122.539L23.5324 113.319ZM395.484 111.448C395.815 112.07 396.143 112.694 396.468 113.319L378.72 122.539C378.426 121.973 378.129 121.409 377.83 120.847L395.484 111.448ZM20.6913 118.997C20.9977 118.361 21.3072 117.726 21.6198 117.093L39.5506 125.953C39.2679 126.525 38.988 127.099 38.7109 127.674L20.6913 118.997ZM398.38 117.093C398.693 117.726 399.002 118.361 399.309 118.997L381.289 127.674C381.012 127.099 380.732 126.525 380.449 125.953L398.38 117.093ZM18.027 124.751C18.3137 124.107 18.6035 123.464 18.8964 122.823L37.0877 131.134C36.8228 131.714 36.5608 132.295 36.3015 132.878L18.027 124.751ZM401.104 122.823C401.397 123.464 401.686 124.107 401.973 124.751L383.698 132.878C383.439 132.295 383.177 131.714 382.912 131.134L401.104 122.823ZM15.5367 130.589C15.8032 129.937 16.0729 129.286 16.3457 128.638L34.7813 136.392C34.5346 136.979 34.2907 137.567 34.0498 138.156L15.5367 130.589ZM403.654 128.638C403.927 129.286 404.197 129.937 404.463 130.589L385.95 138.156C385.709 137.567 385.465 136.979 385.219 136.392L403.654 128.638ZM13.2245 136.5C13.4718 135.839 13.7222 135.179 13.976 134.52L32.6386 141.711C32.4092 142.306 32.1828 142.903 31.9592 143.501L13.2245 136.5ZM406.024 134.52C406.278 135.179 406.528 135.839 406.776 136.5L388.041 143.501C387.817 142.903 387.591 142.306 387.361 141.711L406.024 134.52ZM11.095 142.475C11.3216 141.807 11.5515 141.141 11.7846 140.476L30.6575 147.096C30.4467 147.696 30.2389 148.299 30.034 148.902L11.095 142.475ZM408.215 140.476C408.449 141.141 408.678 141.807 408.905 142.475L389.966 148.902C389.761 148.299 389.553 147.696 389.343 147.096L408.215 140.476ZM9.1459 148.519C9.3522 147.844 9.56181 147.171 9.7747 146.499L28.8404 152.54C28.648 153.148 28.4585 153.757 28.272 154.367L9.1459 148.519ZM410.225 146.499C410.438 147.171 410.648 147.844 410.854 148.519L391.728 154.367C391.542 153.757 391.352 153.148 391.16 152.54L410.225 146.499ZM7.38392 154.612C7.56972 153.931 7.75887 153.251 7.95134 152.573L27.192 158.031C27.018 158.645 26.847 159.259 26.679 159.875L7.38392 154.612ZM412.049 152.573C412.241 153.251 412.43 153.931 412.616 154.612L393.321 159.875C393.153 159.259 392.982 158.645 392.808 158.031L412.049 152.573ZM5.80755 160.758C5.97212 160.074 6.14005 159.39 6.31131 158.708L25.7093 163.578C25.5545 164.195 25.4027 164.813 25.2539 165.432L5.80755 160.758ZM413.689 158.708C413.86 159.39 414.028 160.074 414.192 160.758L394.746 165.432C394.597 164.813 394.446 164.195 394.291 163.578L413.689 158.708ZM4.41752 166.956C4.56179 166.264 4.70948 165.572 4.86055 164.882L24.3976 169.161C24.261 169.784 24.1275 170.409 23.997 171.036L4.41752 166.956ZM415.139 164.883C415.291 165.572 415.438 166.264 415.582 166.956L396.003 171.036C395.873 170.41 395.739 169.785 395.602 169.161L415.139 164.883ZM3.21897 173.179C3.34182 172.485 3.4681 171.792 3.59777 171.1L23.2557 174.783C23.1384 175.409 23.0242 176.036 22.9131 176.664L3.21897 173.179ZM416.402 171.1C416.532 171.792 416.658 172.485 416.781 173.179L397.087 176.664C396.976 176.036 396.862 175.409 396.744 174.783L416.402 171.1ZM2.20766 179.448C2.30933 178.751 2.41442 178.055 2.52293 177.36L22.2836 180.445C22.1854 181.073 22.0904 181.703 21.9984 182.334L2.20766 179.448ZM417.477 177.36C417.586 178.055 417.691 178.751 417.792 179.448L398.002 182.334C397.91 181.703 397.815 181.074 397.716 180.445L417.477 177.36ZM1.38767 185.735C1.46844 185.034 1.55268 184.333 1.64037 183.633L21.4851 186.12C21.4058 186.753 21.3296 187.387 21.2565 188.022L1.38767 185.735ZM418.36 183.633C418.447 184.333 418.532 185.034 418.612 185.735L398.744 188.023C398.67 187.388 398.594 186.754 398.515 186.12L418.36 183.633ZM0.757438 192.044C0.816835 191.343 0.879679 190.643 0.945952 189.944L20.8567 191.832C20.7967 192.465 20.7398 193.098 20.686 193.733L0.757438 192.044ZM419.054 189.944C419.12 190.644 419.183 191.344 419.243 192.045L399.314 193.733C399.26 193.099 399.203 192.465 399.143 191.832L419.054 189.944ZM0.316377 198.379C0.354944 197.672 0.397008 196.967 0.442552 196.262L20.4009 197.552C20.3597 198.19 20.3216 198.829 20.2866 199.469L0.316377 198.379ZM419.557 196.262C419.603 196.967 419.645 197.672 419.684 198.379L399.713 199.469C399.678 198.829 399.64 198.19 399.599 197.552L419.557 196.262ZM0.065567 204.703C0.0830183 203.999 0.10394 203.295 0.128316 202.593L20.1163 203.286C20.0942 203.923 20.0752 204.56 20.0594 205.198L0.065567 204.703ZM419.872 202.593C419.896 203.295 419.917 203.999 419.934 204.703L399.941 205.198C399.925 204.56 399.906 203.923 399.884 203.286L419.872 202.593ZM0 210C0 209.646 0.00087738 209.292 0.00263119 208.938L20.0024 209.037C20.0008 209.358 20 209.679 20 210C20 210.321 20.0008 210.642 20.0024 210.963L0.00263023 211.062C0.00087738 210.708 0 210.354 0 210ZM419.997 208.938C419.999 209.292 420 209.646 420 210C420 210.185 420 210.369 419.999 210.554L419.999 210.693C419.998 210.816 419.998 210.939 419.997 211.062L399.998 210.963C399.999 210.642 400 210.321 400 210C400 209.679 399.999 209.358 399.998 209.037L419.997 208.938ZM0.128311 217.407C0.103935 216.705 0.0830145 216.001 0.0655632 215.297L20.0594 214.802C20.0752 215.44 20.0942 216.077 20.1163 216.714L0.128311 217.407ZM419.934 215.297C419.917 216.001 419.896 216.705 419.872 217.407L399.884 216.714C399.906 216.077 399.925 215.44 399.941 214.802L419.934 215.297ZM0.442543 223.738C0.396999 223.033 0.354936 222.328 0.316368 221.621L20.2866 220.531C20.3216 221.171 20.3597 221.81 20.4009 222.448L0.442543 223.738ZM419.684 221.621C419.645 222.328 419.603 223.033 419.557 223.738L399.599 222.448C399.64 221.81 399.678 221.171 399.713 220.531L419.684 221.621ZM0.945941 230.056C0.879667 229.356 0.816825 228.656 0.757428 227.955L20.686 226.267C20.7398 226.901 20.7967 227.535 20.8567 228.168L0.945941 230.056ZM419.243 227.956C419.183 228.657 419.12 229.357 419.054 230.056L399.143 228.168C399.203 227.535 399.26 226.902 399.314 226.267L419.243 227.956ZM1.64036 236.367C1.55267 235.667 1.46843 234.966 1.38766 234.265L21.2564 231.977C21.3295 232.612 21.4058 233.246 21.4851 233.88L1.64036 236.367ZM418.612 234.265C418.532 234.966 418.447 235.667 418.36 236.367L398.515 233.88C398.594 233.247 398.67 232.613 398.744 231.978L418.612 234.265ZM2.52291 242.64C2.41441 241.945 2.30931 241.249 2.20765 240.552L21.9984 237.666C22.0903 238.297 22.1854 238.926 22.2836 239.555L2.52291 242.64ZM417.792 240.552C417.691 241.249 417.586 241.945 417.477 242.64L397.716 239.555C397.815 238.927 397.91 238.297 398.002 237.666L417.792 240.552ZM3.59775 248.9C3.46808 248.208 3.34181 247.515 3.21895 246.821L22.9131 243.336C23.0242 243.964 23.1384 244.591 23.2557 245.217L3.59775 248.9ZM416.781 246.821C416.658 247.515 416.532 248.208 416.402 248.9L396.744 245.217C396.862 244.591 396.976 243.964 397.087 243.336L416.781 246.821ZM4.86053 255.117C4.70946 254.428 4.56178 253.736 4.41751 253.044L23.997 248.964C24.1275 249.59 24.261 250.215 24.3976 250.839L4.86053 255.117ZM415.582 253.044C415.438 253.736 415.291 254.428 415.139 255.118L395.602 250.839C395.678 250.493 395.753 250.147 395.827 249.8C395.886 249.522 395.945 249.243 396.003 248.964L415.582 253.044ZM6.31129 261.292C6.14003 260.61 5.97211 259.926 5.80754 259.242L25.2539 254.568C25.4026 255.187 25.5545 255.805 25.7093 256.422L6.31129 261.292ZM414.192 259.242C414.028 259.926 413.86 260.61 413.689 261.292L394.291 256.422C394.446 255.805 394.597 255.187 394.746 254.568L414.192 259.242ZM7.95133 267.427C7.75886 266.749 7.56971 266.069 7.38391 265.388L26.679 260.125C26.847 260.741 27.018 261.355 27.192 261.969L7.95133 267.427ZM412.616 265.388C412.43 266.069 412.241 266.749 412.049 267.427L392.808 261.969C392.982 261.355 393.153 260.741 393.321 260.125L412.616 265.388ZM9.7747 273.501C9.5618 272.829 9.3522 272.156 9.1459 271.481L28.272 265.633C28.4585 266.243 28.6479 266.852 28.8404 267.46L9.7747 273.501ZM410.854 271.481C410.648 272.156 410.438 272.829 410.225 273.501L391.16 267.46C391.352 266.852 391.542 266.243 391.728 265.633L410.854 271.481ZM11.7846 279.524C11.5515 278.859 11.3216 278.193 11.095 277.525L30.034 271.098C30.2389 271.701 30.4467 272.304 30.6575 272.904L11.7846 279.524ZM408.905 277.525C408.678 278.193 408.448 278.859 408.215 279.524L389.343 272.904C389.553 272.304 389.761 271.701 389.966 271.098L408.905 277.525ZM13.9759 285.48C13.7222 284.821 13.4717 284.161 13.2245 283.5L31.9592 276.499C32.1828 277.097 32.4092 277.694 32.6386 278.289L13.9759 285.48ZM406.775 283.5C406.528 284.161 406.278 284.821 406.024 285.48L387.361 278.289C387.591 277.694 387.817 277.097 388.041 276.499L406.775 283.5ZM16.3457 291.362C16.0729 290.714 15.8032 290.063 15.5367 289.411L34.0497 281.844C34.2907 282.433 34.5346 283.021 34.7813 283.608L16.3457 291.362ZM404.463 289.411C404.197 290.063 403.927 290.714 403.654 291.362L385.219 283.608C385.465 283.021 385.709 282.433 385.95 281.844L404.463 289.411ZM18.8964 297.177C18.6035 296.536 18.3137 295.893 18.027 295.249L36.3015 287.122C36.5607 287.705 36.8228 288.286 37.0877 288.866L18.8964 297.177ZM401.973 295.249C401.686 295.893 401.397 296.536 401.104 297.177L382.912 288.866C383.064 288.533 383.216 288.2 383.366 287.866C383.477 287.618 383.588 287.37 383.698 287.122L401.973 295.249ZM21.6198 302.907C21.3072 302.274 20.9977 301.639 20.6913 301.003L38.7109 292.326C38.988 292.901 39.2679 293.475 39.5506 294.047L21.6198 302.907ZM399.309 301.003C399.002 301.639 398.693 302.274 398.38 302.907L380.449 294.047C380.732 293.475 381.012 292.901 381.289 292.326L399.309 301.003ZM24.5162 308.552C24.1853 307.93 23.8573 307.306 23.5324 306.681L41.2804 297.461C41.5743 298.027 41.8709 298.591 42.1703 299.153L24.5162 308.552ZM396.468 306.681C396.143 307.306 395.815 307.93 395.484 308.552L377.83 299.153C378.129 298.591 378.426 298.027 378.72 297.461L396.468 306.681ZM27.5828 314.107C27.2328 313.495 26.8858 312.881 26.5417 312.265L44.0025 302.512C44.3137 303.07 44.6276 303.625 44.9443 304.179L27.5828 314.107ZM393.458 312.266C393.114 312.881 392.767 313.495 392.417 314.107L375.056 304.179C375.372 303.625 375.686 303.07 375.997 302.512L393.458 312.266ZM30.814 319.564C30.4459 318.964 30.0808 318.361 29.7186 317.756L46.8765 307.48C47.2042 308.027 47.5345 308.572 47.8676 309.116L30.814 319.564ZM390.281 317.756C389.919 318.361 389.554 318.964 389.186 319.564L372.132 309.116C372.465 308.572 372.796 308.027 373.124 307.48L390.281 317.756ZM34.2104 324.924C33.8243 324.335 33.4411 323.743 33.0608 323.15L49.9005 312.36C50.2446 312.897 50.5913 313.432 50.9407 313.965L34.2104 324.924ZM386.939 323.15C386.559 323.743 386.176 324.335 385.79 324.924L369.059 313.966C369.409 313.432 369.755 312.897 370.099 312.36L386.939 323.15ZM37.7657 330.178C37.3618 329.6 36.9607 329.02 36.5625 328.438L53.0692 317.145C53.4296 317.672 53.7925 318.196 54.1581 318.719L37.7657 330.178ZM383.438 328.438C383.039 329.02 382.638 329.6 382.234 330.178L365.842 318.719C366.207 318.196 366.57 317.672 366.931 317.145L383.438 328.438ZM41.4768 335.32C41.0561 334.755 40.6382 334.188 40.223 333.619L56.382 321.834C56.7578 322.349 57.136 322.862 57.5168 323.374L41.4768 335.32ZM379.777 333.619C379.362 334.188 378.944 334.755 378.523 335.32L362.483 323.374C362.864 322.862 363.242 322.349 363.618 321.834L379.777 333.619ZM45.3424 340.35C44.9046 339.798 44.4696 339.244 44.0373 338.687L59.8344 326.421C60.2257 326.925 60.6194 327.427 61.0157 327.927L45.3424 340.35ZM375.963 338.687C375.53 339.244 375.095 339.798 374.658 340.35L358.984 327.927C359.381 327.427 359.774 326.925 360.166 326.421L375.963 338.687ZM49.3562 345.261C48.9019 344.722 48.4503 344.18 48.0014 343.637L63.4226 330.902C63.829 331.394 64.2378 331.884 64.649 332.372L49.3562 345.261ZM371.999 343.637C371.55 344.18 371.098 344.722 370.644 345.261L355.351 332.372C355.762 331.884 356.171 331.394 356.577 330.902L371.999 343.637ZM53.5159 350.048C53.0458 349.523 52.5784 348.996 52.1136 348.467L67.1452 335.274C67.566 335.753 67.9892 336.23 68.4147 336.706L53.5159 350.048ZM367.886 348.467C367.422 348.996 366.954 349.523 366.484 350.048L351.585 336.706C352.011 336.231 352.434 335.753 352.855 335.274L367.886 348.467ZM57.8175 354.709C57.3318 354.198 56.8486 353.685 56.3681 353.17L70.9968 339.531C71.4319 339.998 71.8693 340.463 72.309 340.925L57.8175 354.709ZM363.632 353.17C363.151 353.685 362.668 354.198 362.182 354.709L347.691 340.925C348.131 340.463 348.568 339.998 349.003 339.531L363.632 353.17ZM62.2569 359.238C61.7561 358.742 61.2578 358.244 60.762 357.743L74.9747 343.672C75.4236 344.125 75.8747 344.576 76.3281 345.025L62.2569 359.238ZM359.238 357.743C358.742 358.244 358.244 358.742 357.743 359.238L343.672 345.025C344.125 344.576 344.576 344.125 345.025 343.672L359.238 357.743ZM66.8303 363.632C66.3148 363.151 65.8018 362.668 65.2911 362.182L79.0751 347.691C79.5373 348.131 80.0018 348.568 80.4685 349.003L66.8303 363.632ZM354.709 362.182C354.198 362.668 353.685 363.151 353.17 363.632L339.531 349.003C339.998 348.568 340.463 348.131 340.925 347.691L354.709 362.182ZM71.5334 367.886C71.0038 367.422 70.4766 366.954 69.9517 366.484L83.2943 351.585C83.7695 352.011 84.2468 352.434 84.7263 352.855L71.5334 367.886ZM350.048 366.484C349.523 366.954 348.996 367.422 348.467 367.886L335.274 352.855C335.753 352.434 336.23 352.011 336.706 351.585L350.048 366.484ZM76.3633 371.999C75.8197 371.55 75.2784 371.098 74.7394 370.644L87.6284 355.351C88.1164 355.762 88.6064 356.171 89.0985 356.577L76.3633 371.999ZM345.261 370.644C344.722 371.098 344.18 371.55 343.637 371.999L330.902 356.577C331.394 356.171 331.884 355.762 332.372 355.351L345.261 370.644ZM81.3131 375.963C80.7563 375.53 80.2018 375.095 79.6496 374.658L92.0733 358.984C92.5731 359.381 93.0751 359.774 93.579 360.166L81.3131 375.963ZM340.35 374.658C339.798 375.095 339.244 375.53 338.687 375.963L326.421 360.166C326.925 359.774 327.427 359.381 327.927 358.984L340.35 374.658ZM86.3811 379.777C85.8118 379.362 85.2447 378.944 84.6799 378.523L96.6264 362.483C97.1376 362.864 97.6509 363.242 98.1661 363.618L86.3811 379.777ZM335.32 378.523C334.755 378.944 334.188 379.362 333.619 379.777L321.834 363.618C322.349 363.242 322.862 362.864 323.374 362.483L335.32 378.523ZM91.5624 383.438C90.9803 383.039 90.4003 382.638 89.8224 382.234L101.281 365.842C101.804 366.207 102.328 366.57 102.855 366.931L91.5624 383.438ZM330.178 382.234C329.6 382.638 329.02 383.039 328.438 383.438L317.145 366.931C317.672 366.57 318.196 366.207 318.719 365.842L330.178 382.234ZM96.85 386.939C96.2565 386.559 95.6651 386.176 95.0757 385.79L106.035 369.059C106.568 369.409 107.103 369.755 107.64 370.099L96.85 386.939ZM324.924 385.79C324.335 386.176 323.743 386.559 323.15 386.939L312.36 370.1C312.897 369.755 313.432 369.409 313.965 369.059L324.924 385.79ZM102.244 390.281C101.639 389.919 101.036 389.554 100.436 389.186L110.884 372.132C111.428 372.465 111.973 372.796 112.52 373.124L102.244 390.281ZM319.564 389.186C318.964 389.554 318.361 389.919 317.756 390.281L307.48 373.124C308.027 372.796 308.572 372.465 309.116 372.132L319.564 389.186ZM107.734 393.458C107.119 393.114 106.505 392.767 105.893 392.417L115.821 375.056C116.375 375.372 116.93 375.686 117.488 375.997L107.734 393.458ZM314.107 392.417C313.495 392.767 312.881 393.114 312.265 393.458L302.512 375.997C303.07 375.686 303.625 375.372 304.179 375.056L314.107 392.417ZM113.319 396.468C112.694 396.143 112.07 395.815 111.448 395.484L120.847 377.83C121.409 378.129 121.973 378.426 122.539 378.72L113.319 396.468ZM308.552 395.484C307.93 395.815 307.306 396.143 306.681 396.468L297.461 378.72C298.027 378.426 298.591 378.129 299.153 377.83L308.552 395.484ZM118.997 399.309C118.361 399.002 117.726 398.693 117.093 398.38L125.953 380.449C126.525 380.732 127.099 381.012 127.674 381.289L118.997 399.309ZM302.907 398.38C302.274 398.693 301.639 399.002 301.003 399.309L292.326 381.289C292.901 381.012 293.475 380.732 294.047 380.449L302.907 398.38ZM124.751 401.973C124.107 401.686 123.464 401.397 122.823 401.104L131.134 382.912C131.714 383.177 132.295 383.439 132.878 383.698L124.751 401.973ZM297.177 401.104C296.536 401.397 295.893 401.686 295.249 401.973L287.122 383.698C287.705 383.439 288.286 383.177 288.866 382.912L297.177 401.104ZM130.589 404.463C129.937 404.197 129.286 403.927 128.638 403.654L136.392 385.219C136.979 385.465 137.567 385.709 138.156 385.95L130.589 404.463ZM291.362 403.654C290.714 403.927 290.063 404.197 289.411 404.463L281.844 385.95C282.433 385.709 283.021 385.465 283.608 385.219L291.362 403.654ZM136.5 406.775C135.839 406.528 135.179 406.278 134.52 406.024L141.711 387.361C142.306 387.591 142.903 387.817 143.501 388.041L136.5 406.775ZM284.313 406.47C284.042 406.572 283.771 406.674 283.5 406.776L276.499 388.041C277.097 387.817 277.694 387.591 278.289 387.361L285.48 406.024C285.091 406.174 284.703 406.322 284.313 406.47ZM142.475 408.905C141.807 408.678 141.141 408.448 140.476 408.215L147.096 389.343C147.696 389.553 148.299 389.761 148.902 389.966L142.475 408.905ZM279.524 408.215C278.859 408.449 278.193 408.678 277.525 408.905L271.098 389.966C271.701 389.761 272.304 389.553 272.904 389.343L279.524 408.215ZM148.519 410.854C147.844 410.648 147.171 410.438 146.499 410.225L152.54 391.16C153.148 391.352 153.757 391.542 154.367 391.728L148.519 410.854ZM273.501 410.225C272.829 410.438 272.156 410.648 271.481 410.854L265.633 391.728C266.243 391.542 266.852 391.352 267.46 391.16L273.501 410.225ZM154.612 412.616C153.931 412.43 153.251 412.241 152.573 412.049L158.031 392.808C158.645 392.982 159.259 393.153 159.875 393.321L154.612 412.616ZM267.427 412.049C266.749 412.241 266.069 412.43 265.388 412.616L260.125 393.321C260.741 393.153 261.355 392.982 261.969 392.808L267.427 412.049ZM160.758 414.192C160.074 414.028 159.39 413.86 158.708 413.689L163.578 394.291C164.195 394.446 164.813 394.597 165.432 394.746L160.758 414.192ZM261.292 413.689C260.61 413.86 259.926 414.028 259.242 414.192L254.568 394.746C255.187 394.597 255.805 394.446 256.422 394.291L261.292 413.689ZM166.956 415.582C166.264 415.438 165.572 415.291 164.882 415.139L169.161 395.602C169.784 395.739 170.409 395.873 171.036 396.003L166.956 415.582ZM255.117 415.139C254.428 415.291 253.736 415.438 253.044 415.582L248.964 396.003C249.31 395.931 249.655 395.858 249.999 395.784C250.279 395.724 250.559 395.664 250.839 395.602L255.117 415.139ZM173.179 416.781C172.485 416.658 171.792 416.532 171.1 416.402L174.783 396.744C175.409 396.862 176.036 396.976 176.664 397.087L173.179 416.781ZM248.9 416.402C248.208 416.532 247.515 416.658 246.821 416.781L243.336 397.087C243.964 396.976 244.591 396.862 245.217 396.744L248.9 416.402ZM179.448 417.792C178.751 417.691 178.055 417.586 177.36 417.477L180.445 397.716C181.073 397.815 181.703 397.91 182.334 398.002L179.448 417.792ZM242.64 417.477C241.945 417.586 241.249 417.691 240.552 417.792L237.666 398.002C238.297 397.91 238.926 397.815 239.555 397.716L242.64 417.477ZM185.735 418.612C185.034 418.532 184.333 418.447 183.633 418.36L186.12 398.515C186.753 398.594 187.387 398.67 188.022 398.744L185.735 418.612ZM236.367 418.36C235.667 418.447 234.966 418.532 234.265 418.612L231.977 398.744C232.612 398.67 233.246 398.594 233.88 398.515L236.367 418.36ZM192.044 419.243C191.343 419.183 190.643 419.12 189.944 419.054L191.832 399.143C192.465 399.203 193.098 399.26 193.733 399.314L192.044 419.243ZM230.056 419.054C229.356 419.12 228.656 419.183 227.955 419.243L226.267 399.314C226.901 399.26 227.535 399.203 228.168 399.143L230.056 419.054ZM198.379 419.684C197.672 419.645 196.967 419.603 196.262 419.557L197.552 399.599C198.19 399.64 198.829 399.678 199.469 399.713L198.379 419.684ZM223.738 419.557C223.033 419.603 222.328 419.645 221.621 419.684L220.531 399.713C221.171 399.678 221.81 399.64 222.448 399.599L223.738 419.557ZM204.703 419.934C204.43 419.928 204.156 419.92 203.883 419.913C203.648 419.906 203.412 419.899 203.177 419.891C202.982 419.885 202.787 419.878 202.593 419.872L203.286 399.884C203.923 399.906 204.56 399.925 205.198 399.941L204.703 419.934ZM217.407 419.872C216.705 419.896 216.001 419.917 215.297 419.934L214.802 399.941C215.44 399.925 216.077 399.906 216.714 399.884L217.407 419.872ZM210 420C209.646 420 209.292 419.999 208.938 419.997L209.037 399.998C209.358 399.999 209.679 400 210 400C210.321 400 210.642 399.999 210.963 399.998L211.062 419.997C210.708 419.999 210.354 420 210 420ZM210 41C116.664 41 41 116.664 41 210C41 303.336 116.664 379 210 379C303.336 379 379 303.336 379 210C379 116.664 303.336 41 210 41ZM39 210C39 115.559 115.559 39 210 39C304.441 39 381 115.559 381 210C381 304.441 304.441 381 210 381C115.559 381 39 304.441 39 210ZM51 210C51 122.187 122.187 51 210 51C297.813 51 369 122.187 369 210C369 297.813 297.813 369 210 369C122.187 369 51 297.813 51 210ZM210 49C121.082 49 49 121.082 49 210C49 298.918 121.082 371 210 371C298.918 371 371 298.918 371 210C371 121.082 298.918 49 210 49Z" fill="#CCCCCC"/>
</svg>
