<?xml version="1.0" encoding="UTF-8" standalone="no"?><svg width="85" height="90" viewBox="0 0 85 90" fill="none" xmlns="http://www.w3.org/2000/svg">
<path d="M42.9511 39.3054C42.6517 38.3841 41.3483 38.3841 41.0489 39.3054L40.4284 41.2152C40.2945 41.6272 39.9106 41.9062 39.4773 41.9062H37.4692C36.5005 41.9062 36.0977 43.1458 36.8814 43.7152L38.506 44.8956C38.8565 45.1502 39.0032 45.6016 38.8693 46.0136L38.2488 47.9234C37.9494 48.8447 39.0039 49.6109 39.7876 49.0415L41.4122 47.8611C41.7627 47.6065 42.2373 47.6065 42.5878 47.8611L44.2124 49.0415C44.9961 49.6109 46.0506 48.8447 45.7512 47.9234L45.1307 46.0136C44.9968 45.6016 45.1435 45.1502 45.494 44.8956L47.1186 43.7152C47.9023 43.1458 47.4995 41.9062 46.5308 41.9062H44.5227C44.0894 41.9062 43.7055 41.6272 43.5716 41.2152L42.9511 39.3054Z" fill="black"/>
<path fill-rule="evenodd" clip-rule="evenodd" d="M67.867 0.512316C68.3453 0.788458 68.5092 1.40005 68.2331 1.87834L64.2459 8.78424C76.3985 16.2052 84.5104 29.592 84.5104 44.8733C84.5104 68.2102 65.5921 87.1285 42.2552 87.1285C34.9143 87.1285 28.0107 85.2566 21.9956 81.964L18.0094 88.8683C17.7332 89.3466 17.1216 89.5105 16.6433 89.2344C16.165 88.9582 16.0012 88.3466 16.2773 87.8683L20.2644 80.9624C8.11186 73.5414 0 60.1547 0 44.8733C0 21.5364 18.9183 2.61814 42.2552 2.61814C49.596 2.61814 56.4997 4.49007 62.5148 7.78263L66.501 0.87834C66.7772 0.400046 67.3887 0.236174 67.867 0.512316ZM61.5144 9.51548C55.7937 6.39287 49.2317 4.61814 42.2552 4.61814C20.0229 4.61814 2 22.641 2 44.8733C2 59.4145 9.70995 72.1549 21.2649 79.2296L24.751 73.1914C15.2783 67.3236 8.96852 56.8353 8.96852 44.8733C8.96852 26.4896 23.8715 11.5867 42.2552 11.5867C47.9622 11.5867 53.3338 13.0229 58.0282 15.5536L61.5144 9.51548ZM57.0276 17.2868C52.6278 14.9258 47.5979 13.5867 42.2552 13.5867C24.976 13.5867 10.9685 27.5942 10.9685 44.8733C10.9685 56.0951 16.8765 65.9369 25.7517 71.4582L29.2388 65.4183C22.4455 61.1054 17.937 53.5159 17.937 44.8733C17.937 31.4428 28.8246 20.5552 42.2552 20.5552C46.3284 20.5552 50.1678 21.5566 53.5404 23.3267L57.0276 17.2868ZM55.2716 24.3283L58.7587 18.2884C67.6339 23.8097 73.5418 33.6516 73.5418 44.8733C73.5418 62.1525 59.5343 76.16 42.2552 76.16C36.9125 76.16 31.8826 74.8208 27.4828 72.4598L30.97 66.4199C34.3426 68.19 38.1819 69.1915 42.2552 69.1915C55.6857 69.1915 66.5733 58.3039 66.5733 44.8733C66.5733 36.2308 62.0649 28.6413 55.2716 24.3283ZM52.5393 25.0607L48.5652 31.9441C48.289 32.4224 48.4529 33.034 48.9312 33.3101C49.4095 33.5863 50.0211 33.4224 50.2972 32.9441L54.2705 26.0623C60.4664 30.028 64.5733 36.9711 64.5733 44.8733C64.5733 57.1993 54.5812 67.1915 42.2552 67.1915C38.5463 67.1915 35.0487 66.2868 31.971 64.686L35.9452 57.8025C36.2213 57.3242 36.0575 56.7127 35.5792 56.4365C35.1009 56.1604 34.4893 56.3242 34.2132 56.8025L30.2399 63.6844C24.044 59.7186 19.937 52.7756 19.937 44.8733C19.937 32.5474 29.9292 22.5552 42.2552 22.5552C45.9641 22.5552 49.4617 23.4599 52.5393 25.0607ZM26.4822 74.193C31.1766 76.7238 36.5482 78.16 42.2552 78.16C60.6389 78.16 75.5418 63.257 75.5418 44.8733C75.5418 32.9113 69.2321 22.4231 59.7593 16.5553L63.2455 10.5171C74.8004 17.5918 82.5104 30.3322 82.5104 44.8733C82.5104 67.1057 64.4875 85.1285 42.2552 85.1285C35.2787 85.1285 28.7167 83.3538 22.996 80.2312L26.4822 74.193Z" fill="black"/>
</svg>
